<svg id="my-svg" width="301.8896484375" xmlns="http://www.w3.org/2000/svg" xmlns:xlink="http://www.w3.org/1999/xlink" class="classDiagram" height="854" viewBox="0 0 301.8896484375 854" role="graphics-document document" aria-roledescription="class" aria-describedby="chart-desc-my-svg" aria-labelledby="chart-title-my-svg" style="background-color: transparent;"><title id="chart-title-my-svg">THIR data layout</title><desc id="chart-desc-my-svg">The thir_body query yields a Thir of flat arrays referenced by ExprId/ArmId, where each Expr carries its type inline and a Match arm holds a Pat whose PatKind covers Wild, Variant, Leaf, Constant, Range, and Or.</desc><style>#my-svg{font-family:'JetBrains Mono','SF Mono','Berkeley Mono','Consolas','DejaVu Sans Mono',monospace;font-size:14px;fill:#1a1a1a;}@keyframes edge-animation-frame{from{stroke-dashoffset:0;}}@keyframes dash{to{stroke-dashoffset:0;}}#my-svg .edge-animation-slow{stroke-dasharray:9,5!important;stroke-dashoffset:900;animation:dash 50s linear infinite;stroke-linecap:round;}#my-svg .edge-animation-fast{stroke-dasharray:9,5!important;stroke-dashoffset:900;animation:dash 20s linear infinite;stroke-linecap:round;}#my-svg .error-icon{fill:#FBF7F0;}#my-svg .error-text{fill:#04080f;stroke:#04080f;}#my-svg .edge-thickness-normal{stroke-width:1px;}#my-svg .edge-thickness-thick{stroke-width:3.5px;}#my-svg .edge-pattern-solid{stroke-dasharray:0;}#my-svg .edge-thickness-invisible{stroke-width:0;fill:none;}#my-svg .edge-pattern-dashed{stroke-dasharray:3;}#my-svg .edge-pattern-dotted{stroke-dasharray:2;}#my-svg .marker{fill:#1a1a1a;stroke:#1a1a1a;}#my-svg .marker.cross{stroke:#1a1a1a;}#my-svg svg{font-family:'JetBrains Mono','SF Mono','Berkeley Mono','Consolas','DejaVu Sans Mono',monospace;font-size:14px;}#my-svg p{margin:0;}#my-svg g.classGroup text{fill:#1a1a1a;stroke:none;font-family:'JetBrains Mono','SF Mono','Berkeley Mono','Consolas','DejaVu Sans Mono',monospace;font-size:10px;}#my-svg g.classGroup text .title{font-weight:bolder;}#my-svg .cluster-label text{fill:#1a1a1a;}#my-svg .cluster-label span{color:#1a1a1a;}#my-svg .cluster-label span p{background-color:transparent;}#my-svg .cluster rect{fill:#F5EFE6;stroke:#1a1a1a;stroke-width:1px;}#my-svg .cluster text{fill:#1a1a1a;}#my-svg .cluster span{color:#1a1a1a;}#my-svg .nodeLabel,#my-svg .edgeLabel{color:#1a1a1a;}#my-svg .noteLabel .nodeLabel,#my-svg .noteLabel .edgeLabel{color:#1a1a1a;}#my-svg .edgeLabel .label rect{fill:#FBF7F0;}#my-svg .label text{fill:#1a1a1a;}#my-svg .labelBkg{background:#FBF7F0;}#my-svg .edgeLabel .label span{background:#FBF7F0;}#my-svg .classTitle{font-weight:bolder;}#my-svg .node rect,#my-svg .node circle,#my-svg .node ellipse,#my-svg .node polygon,#my-svg .node path{fill:#FBF7F0;stroke:#1a1a1a;stroke-width:1;}#my-svg .divider{stroke:#1a1a1a;stroke-width:1;}#my-svg g.clickable{cursor:pointer;}#my-svg g.classGroup rect{fill:#FBF7F0;stroke:#1a1a1a;}#my-svg g.classGroup line{stroke:#1a1a1a;stroke-width:1;}#my-svg .classLabel .box{stroke:none;stroke-width:0;fill:#FBF7F0;opacity:0.5;}#my-svg .classLabel .label{fill:#1a1a1a;font-size:10px;}#my-svg .relation{stroke:#1a1a1a;stroke-width:1;fill:none;}#my-svg .dashed-line{stroke-dasharray:3;}#my-svg .dotted-line{stroke-dasharray:1 2;}#my-svg [id$="-compositionStart"],#my-svg .composition{fill:#1a1a1a!important;stroke:#1a1a1a!important;stroke-width:1;}#my-svg [id$="-compositionEnd"],#my-svg .composition{fill:#1a1a1a!important;stroke:#1a1a1a!important;stroke-width:1;}#my-svg [id$="-dependencyStart"],#my-svg .dependency{fill:#1a1a1a!important;stroke:#1a1a1a!important;stroke-width:1;}#my-svg [id$="-dependencyEnd"],#my-svg .dependency{fill:#1a1a1a!important;stroke:#1a1a1a!important;stroke-width:1;}#my-svg [id$="-extensionStart"],#my-svg .extension{fill:transparent!important;stroke:#1a1a1a!important;stroke-width:1;}#my-svg [id$="-extensionEnd"],#my-svg .extension{fill:transparent!important;stroke:#1a1a1a!important;stroke-width:1;}#my-svg [id$="-aggregationStart"],#my-svg .aggregation{fill:transparent!important;stroke:#1a1a1a!important;stroke-width:1;}#my-svg [id$="-aggregationEnd"],#my-svg .aggregation{fill:transparent!important;stroke:#1a1a1a!important;stroke-width:1;}#my-svg [id$="-lollipopStart"],#my-svg .lollipop{fill:#FBF7F0!important;stroke:#1a1a1a!important;stroke-width:1;}#my-svg [id$="-lollipopEnd"],#my-svg .lollipop{fill:#FBF7F0!important;stroke:#1a1a1a!important;stroke-width:1;}#my-svg .edgeTerminals{font-size:11px;line-height:initial;}#my-svg .classTitleText{text-anchor:middle;font-size:18px;fill:#1a1a1a;}#my-svg .edgeLabel[data-look="neo"]{background-color:#FBF7F0;text-align:center;}#my-svg .edgeLabel[data-look="neo"] p{background-color:#FBF7F0;}#my-svg .edgeLabel[data-look="neo"] rect{opacity:0.5;background-color:#FBF7F0;fill:#FBF7F0;}#my-svg .label-icon{display:inline-block;height:1em;overflow:visible;vertical-align:-0.125em;}#my-svg .node .label-icon path{fill:currentColor;stroke:revert;stroke-width:revert;}#my-svg .node .neo-node{stroke:#1a1a1a;}#my-svg [data-look="neo"].node rect,#my-svg [data-look="neo"].cluster rect,#my-svg [data-look="neo"].node polygon{stroke:url(#my-svg-gradient);filter:drop-shadow( 1px 2px 2px rgba(185,185,185,1));}#my-svg [data-look="neo"].node path{stroke:url(#my-svg-gradient);stroke-width:1px;}#my-svg [data-look="neo"].node .outer-path{filter:drop-shadow( 1px 2px 2px rgba(185,185,185,1));}#my-svg [data-look="neo"].node .neo-line path{stroke:#1a1a1a;filter:none;}#my-svg [data-look="neo"].node circle{stroke:url(#my-svg-gradient);filter:drop-shadow( 1px 2px 2px rgba(185,185,185,1));}#my-svg [data-look="neo"].node circle .state-start{fill:#000000;}#my-svg [data-look="neo"].icon-shape .icon{fill:url(#my-svg-gradient);filter:drop-shadow( 1px 2px 2px rgba(185,185,185,1));}#my-svg [data-look="neo"].icon-shape .icon-neo path{stroke:url(#my-svg-gradient);filter:drop-shadow( 1px 2px 2px rgba(185,185,185,1));}#my-svg :root{--mermaid-font-family:"trebuchet ms",verdana,arial,sans-serif;}</style><g><defs><marker id="my-svg_class-aggregationStart" class="marker aggregation class" refX="18" refY="7" markerWidth="190" markerHeight="240" orient="auto"><path d="M 18,7 L9,13 L1,7 L9,1 Z"/></marker></defs><defs><marker id="my-svg_class-aggregationEnd" class="marker aggregation class" refX="1" refY="7" markerWidth="20" markerHeight="28" orient="auto"><path d="M 18,7 L9,13 L1,7 L9,1 Z"/></marker></defs><defs><marker id="my-svg_class-aggregationStart-margin" class="marker aggregation class" refX="15" refY="7" markerWidth="190" markerHeight="240" orient="auto" markerUnits="userSpaceOnUse"><path d="M 18,7 L9,13 L1,7 L9,1 Z" style="stroke-width: 2;"/></marker></defs><defs><marker id="my-svg_class-aggregationEnd-margin" class="marker aggregation class" refX="1" refY="7" markerWidth="20" markerHeight="28" orient="auto" markerUnits="userSpaceOnUse"><path d="M 18,7 L9,13 L1,7 L9,1 Z" style="stroke-width: 2;"/></marker></defs><defs><marker id="my-svg_class-extensionStart" class="marker extension class" refX="18" refY="7" markerWidth="20" markerHeight="28" orient="auto" markerUnits="userSpaceOnUse"><path d="M 1,7 L18,13 V 1 Z"/></marker></defs><defs><marker id="my-svg_class-extensionEnd" class="marker extension class" refX="1" refY="7" markerWidth="20" markerHeight="28" orient="auto"><path d="M 1,1 V 13 L18,7 Z"/></marker></defs><marker id="my-svg_class-extensionStart-margin" class="marker extension class" refX="18" refY="7" markerWidth="20" markerHeight="28" orient="auto" markerUnits="userSpaceOnUse" viewBox="0 0 20 14"><polygon points="10,7 18,13 18,1" style="stroke-width: 2; stroke-dasharray: 0;"/></marker><defs><marker id="my-svg_class-extensionEnd-margin" class="marker extension class" refX="9" refY="7" markerWidth="20" markerHeight="28" orient="auto" markerUnits="userSpaceOnUse" viewBox="0 0 20 14"><polygon points="10,1 10,13 18,7" style="stroke-width: 2; stroke-dasharray: 0;"/></marker></defs><defs><marker id="my-svg_class-compositionStart" class="marker composition class" refX="18" refY="7" markerWidth="190" markerHeight="240" orient="auto"><path d="M 18,7 L9,13 L1,7 L9,1 Z"/></marker></defs><defs><marker id="my-svg_class-compositionEnd" class="marker composition class" refX="1" refY="7" markerWidth="20" markerHeight="28" orient="auto"><path d="M 18,7 L9,13 L1,7 L9,1 Z"/></marker></defs><defs><marker id="my-svg_class-compositionStart-margin" class="marker composition class" refX="15" refY="7" markerWidth="190" markerHeight="240" orient="auto" markerUnits="userSpaceOnUse"><path viewBox="0 0 15 15" d="M 18,7 L9,13 L1,7 L9,1 Z" style="stroke-width: 0;"/></marker></defs><defs><marker id="my-svg_class-compositionEnd-margin" class="marker composition class" refX="3.5" refY="7" markerWidth="20" markerHeight="28" orient="auto" markerUnits="userSpaceOnUse"><path d="M 18,7 L9,13 L1,7 L9,1 Z" style="stroke-width: 0;"/></marker></defs><defs><marker id="my-svg_class-dependencyStart" class="marker dependency class" refX="6" refY="7" markerWidth="190" markerHeight="240" orient="auto"><path d="M 5,7 L9,13 L1,7 L9,1 Z"/></marker></defs><defs><marker id="my-svg_class-dependencyEnd" class="marker dependency class" refX="13" refY="7" markerWidth="20" markerHeight="28" orient="auto"><path d="M 18,7 L9,13 L14,7 L9,1 Z"/></marker></defs><defs><marker id="my-svg_class-dependencyStart-margin" class="marker dependency class" refX="4" refY="7" markerWidth="190" markerHeight="240" orient="auto" markerUnits="userSpaceOnUse"><path d="M 5,7 L9,13 L1,7 L9,1 Z" style="stroke-width: 0;"/></marker></defs><defs><marker id="my-svg_class-dependencyEnd-margin" class="marker dependency class" refX="16" refY="7" markerWidth="20" markerHeight="28" orient="auto" markerUnits="userSpaceOnUse"><path d="M 18,7 L9,13 L14,7 L9,1 Z" style="stroke-width: 0;"/></marker></defs><defs><marker id="my-svg_class-lollipopStart" class="marker lollipop class" refX="13" refY="7" markerWidth="190" markerHeight="240" orient="auto"><circle fill="transparent" cx="7" cy="7" r="6"/></marker></defs><defs><marker id="my-svg_class-lollipopEnd" class="marker lollipop class" refX="1" refY="7" markerWidth="190" markerHeight="240" orient="auto"><circle fill="transparent" cx="7" cy="7" r="6"/></marker></defs><defs><marker id="my-svg_class-lollipopStart-margin" class="marker lollipop class" refX="13" refY="7" markerWidth="190" markerHeight="240" orient="auto" markerUnits="userSpaceOnUse"><circle fill="transparent" cx="7" cy="7" r="6" stroke-width="2"/></marker></defs><defs><marker id="my-svg_class-lollipopEnd-margin" class="marker lollipop class" refX="1" refY="7" markerWidth="190" markerHeight="240" orient="auto" markerUnits="userSpaceOnUse"><circle fill="transparent" cx="7" cy="7" r="6" stroke-width="2"/></marker></defs><g class="root"><g class="clusters"/><g class="edgePaths"><path d="M150.945,151.25L150.945,153.125C150.945,155,150.945,158.75,150.945,165.375C150.945,172,150.945,181.5,150.945,186.25L150.945,191" id="my-svg-id_Thir_Expr_1" class="edge-thickness-normal edge-pattern-solid relation" style=";;;" data-edge="true" data-et="edge" data-id="id_Thir_Expr_1" data-points="W3sieCI6MTUwLjk0NDgyNDIxODc1LCJ5IjoxMzR9LHsieCI6MTUwLjk0NDgyNDIxODc1LCJ5IjoxNjIuNX0seyJ4IjoxNTAuOTQ0ODI0MjE4NzUsInkiOjE5MX1d" data-look="classic" marker-start="url(#my-svg_class-compositionStart)"/><path d="M150.945,334.25L150.945,336.125C150.945,338,150.945,341.75,150.945,348.375C150.945,355,150.945,364.5,150.945,369.25L150.945,374" id="my-svg-id_Expr_Match_2" class="edge-thickness-normal edge-pattern-solid relation" style=";;;" data-edge="true" data-et="edge" data-id="id_Expr_Match_2" data-points="W3sieCI6MTUwLjk0NDgyNDIxODc1LCJ5IjozMTd9LHsieCI6MTUwLjk0NDgyNDIxODc1LCJ5IjozNDUuNX0seyJ4IjoxNTAuOTQ0ODI0MjE4NzUsInkiOjM3NH1d" data-look="classic" marker-start="url(#my-svg_class-extensionStart)"/><path d="M150.945,517.25L150.945,519.125C150.945,521,150.945,524.75,150.945,531.375C150.945,538,150.945,547.5,150.945,552.25L150.945,557" id="my-svg-id_Match_Arm_3" class="edge-thickness-normal edge-pattern-solid relation" style=";;;" data-edge="true" data-et="edge" data-id="id_Match_Arm_3" data-points="W3sieCI6MTUwLjk0NDgyNDIxODc1LCJ5Ijo1MDB9LHsieCI6MTUwLjk0NDgyNDIxODc1LCJ5Ijo1MjguNX0seyJ4IjoxNTAuOTQ0ODI0MjE4NzUsInkiOjU1N31d" data-look="classic" marker-start="url(#my-svg_class-compositionStart)"/><path d="M150.945,680.25L150.945,682.125C150.945,684,150.945,687.75,150.945,694.375C150.945,701,150.945,710.5,150.945,715.25L150.945,720" id="my-svg-id_Arm_PatKind_4" class="edge-thickness-normal edge-pattern-solid relation" style=";;;" data-edge="true" data-et="edge" data-id="id_Arm_PatKind_4" data-points="W3sieCI6MTUwLjk0NDgyNDIxODc1LCJ5Ijo2NjN9LHsieCI6MTUwLjk0NDgyNDIxODc1LCJ5Ijo2OTEuNX0seyJ4IjoxNTAuOTQ0ODI0MjE4NzUsInkiOjcyMH1d" data-look="classic" marker-start="url(#my-svg_class-compositionStart)"/></g><g class="edgeLabels"><g class="edgeLabel" transform="translate(150.94482421875, 162.5)"><g class="label" data-id="id_Thir_Expr_1" transform="translate(0, -9.500000953674316)"><g><rect class="background" style="" x="-44.34375" y="-0.9999990463256836" width="88.6875" height="21"/><text y="-10.1" text-anchor="middle" style=""><tspan class="text-outer-tspan row" x="0" y="-0.1em" dy="1.1em" text-anchor="middle"><tspan font-style="normal" class="text-inner-tspan" font-weight="normal">holds</tspan><tspan font-style="normal" class="text-inner-tspan" font-weight="normal"> exprs</tspan></tspan></text></g></g></g><g class="edgeLabel" transform="translate(150.94482421875, 345.5)"><g class="label" data-id="id_Expr_Match_2" transform="translate(0, -9.500000953674316)"><g><rect class="background" style="" x="-48.1875" y="-0.9999990463256836" width="96.375" height="21"/><text y="-10.1" text-anchor="middle" style=""><tspan class="text-outer-tspan row" x="0" y="-0.1em" dy="1.1em" text-anchor="middle"><tspan font-style="normal" class="text-inner-tspan" font-weight="normal">one</tspan><tspan font-style="normal" class="text-inner-tspan" font-weight="normal"> ExprKind</tspan></tspan></text></g></g></g><g class="edgeLabel" transform="translate(150.94482421875, 528.5)"><g class="label" data-id="id_Match_Arm_3" transform="translate(0, -9.500000953674316)"><g><rect class="background" style="" x="-40.5" y="-0.9999990463256836" width="81" height="21"/><text y="-10.1" text-anchor="middle" style=""><tspan class="text-outer-tspan row" x="0" y="-0.1em" dy="1.1em" text-anchor="middle"><tspan font-style="normal" class="text-inner-tspan" font-weight="normal">holds</tspan><tspan font-style="normal" class="text-inner-tspan" font-weight="normal"> arms</tspan></tspan></text></g></g></g><g class="edgeLabel" transform="translate(150.94482421875, 691.5)"><g class="label" data-id="id_Arm_PatKind_4" transform="translate(0, -9.500000953674316)"><g><rect class="background" style="" x="-48.1953125" y="-0.9999990463256836" width="96.390625" height="21"/><text y="-10.1" text-anchor="middle" style=""><tspan class="text-outer-tspan row" x="0" y="-0.1em" dy="1.1em" text-anchor="middle"><tspan font-style="normal" class="text-inner-tspan" font-weight="normal">pattern</tspan><tspan font-style="normal" class="text-inner-tspan" font-weight="normal"> kind</tspan></tspan></text></g></g></g></g><g class="nodes"><g class="node default" id="my-svg-classId-Thir-0" data-look="classic" transform="translate(150.94482421875, 71)"><g class="basic label-container outer-path"><path d="M-142.94482421875 -63 L142.94482421875 -63 L142.94482421875 63 L-142.94482421875 63" stroke="none" stroke-width="0" fill="#FBF7F0" style=""/><path d="M-142.94482421875 -63 C-81.34981696887283 -63, -19.754809718995645 -63, 142.94482421875 -63 M-142.94482421875 -63 C-38.297034446798236 -63, 66.35075532515353 -63, 142.94482421875 -63 M142.94482421875 -63 C142.94482421875 -32.71844735585297, 142.94482421875 -2.4368947117059463, 142.94482421875 63 M142.94482421875 -63 C142.94482421875 -14.248664256438651, 142.94482421875 34.5026714871227, 142.94482421875 63 M142.94482421875 63 C32.57128683825779 63, -77.80225054223442 63, -142.94482421875 63 M142.94482421875 63 C76.26929129003732 63, 9.593758361324632 63, -142.94482421875 63 M-142.94482421875 63 C-142.94482421875 13.432397647403995, -142.94482421875 -36.13520470519201, -142.94482421875 -63 M-142.94482421875 63 C-142.94482421875 27.981110801750567, -142.94482421875 -7.037778396498865, -142.94482421875 -63" stroke="#1a1a1a" stroke-width="1.3" fill="none" stroke-dasharray="0 0" style=""/></g><g class="annotation-group text" transform="translate(0, -43)"/><g class="label-group text" transform="translate(-15.5458984375, -43)"><g class="label" style="font-weight: bolder" transform="translate(0,-8.5)"><g><rect class="background" style="stroke: none"/><text y="-10.1" style=""><tspan class="text-outer-tspan row" x="0" y="-0.1em" dy="1.1em" font-weight=""><tspan font-style="normal" class="text-inner-tspan" font-weight="">Thir</tspan></tspan></text></g></g></g><g class="members-group text" transform="translate(-130.94482421875, -2)"><g class="label" style="" transform="translate(0,-8.5)"><g><rect class="background" style="stroke: none"/><text y="-10.1" style=""><tspan class="text-outer-tspan row" x="0" y="-0.1em" dy="1.1em"><tspan font-style="normal" class="text-inner-tspan" font-weight="normal">from</tspan><tspan font-style="normal" class="text-inner-tspan" font-weight="normal"> the</tspan><tspan font-style="normal" class="text-inner-tspan" font-weight="normal"> thir_body</tspan><tspan font-style="normal" class="text-inner-tspan" font-weight="normal"> query</tspan></tspan></text></g></g><g class="label" style="" transform="translate(0,11.5)"><g><rect class="background" style="stroke: none"/><text y="-10.1" style=""><tspan class="text-outer-tspan row" x="0" y="-0.1em" dy="1.1em"><tspan font-style="normal" class="text-inner-tspan" font-weight="normal">flat</tspan><tspan font-style="normal" class="text-inner-tspan" font-weight="normal"> arrays:</tspan><tspan font-style="normal" class="text-inner-tspan" font-weight="normal"> exprs,</tspan><tspan font-style="normal" class="text-inner-tspan" font-weight="normal"> arms,</tspan><tspan font-style="normal" class="text-inner-tspan" font-weight="normal"> params</tspan></tspan></text></g></g></g><g class="methods-group text" transform="translate(-130.94482421875, 59)"/><g class="divider" style=""><path d="M-142.94482421875 -22 C-38.63099356922518 -21.999635125541552, 65.68283708029963 -21.999270251083104, 142.94482421875 -21.999 M-142.94482421875 -22 C-83.52882887017486 -21.999792171575034, -24.11283352159971 -21.99958434315007, 142.94482421875 -21.999" stroke="#1a1a1a" stroke-width="1.3" fill="none" stroke-dasharray="0 0" style=""/></g><g class="divider" style=""><path d="M-142.94482421875 39 C-45.909840780340346 39.000339414119985, 51.12514265806931 39.00067882823998, 142.94482421875 39.001 M-142.94482421875 39 C-32.54932437718266 39.00038614724403, 77.84617546438469 39.000772294488065, 142.94482421875 39.001" stroke="#1a1a1a" stroke-width="1.3" fill="none" stroke-dasharray="0 0" style=""/></g></g><g class="node default" id="my-svg-classId-Expr-1" data-look="classic" transform="translate(150.94482421875, 254)"><g class="basic label-container outer-path"><path d="M-131.39013671875 -63 L131.39013671875 -63 L131.39013671875 63 L-131.39013671875 63" stroke="none" stroke-width="0" fill="#FBF7F0" style=""/><path d="M-131.39013671875 -63 C-76.84074418607187 -63, -22.291351653393747 -63, 131.39013671875 -63 M-131.39013671875 -63 C-62.111971890607975 -63, 7.166192937534049 -63, 131.39013671875 -63 M131.39013671875 -63 C131.39013671875 -13.904476926635937, 131.39013671875 35.19104614672813, 131.39013671875 63 M131.39013671875 -63 C131.39013671875 -36.10400248785151, 131.39013671875 -9.20800497570302, 131.39013671875 63 M131.39013671875 63 C51.544748694784744 63, -28.300639329180513 63, -131.39013671875 63 M131.39013671875 63 C52.42247135053822 63, -26.545194017673566 63, -131.39013671875 63 M-131.39013671875 63 C-131.39013671875 20.743163381206614, -131.39013671875 -21.513673237586772, -131.39013671875 -63 M-131.39013671875 63 C-131.39013671875 24.420724474551818, -131.39013671875 -14.158551050896364, -131.39013671875 -63" stroke="#1a1a1a" stroke-width="1.3" fill="none" stroke-dasharray="0 0" style=""/></g><g class="annotation-group text" transform="translate(0, -43)"/><g class="label-group text" transform="translate(-15.5458984375, -43)"><g class="label" style="font-weight: bolder" transform="translate(0,-8.5)"><g><rect class="background" style="stroke: none"/><text y="-10.1" style=""><tspan class="text-outer-tspan row" x="0" y="-0.1em" dy="1.1em" font-weight=""><tspan font-style="normal" class="text-inner-tspan" font-weight="">Expr</tspan></tspan></text></g></g></g><g class="members-group text" transform="translate(-119.39013671875, -2)"><g class="label" style="" transform="translate(0,-8.5)"><g><rect class="background" style="stroke: none"/><text y="-10.1" style=""><tspan class="text-outer-tspan row" x="0" y="-0.1em" dy="1.1em"><tspan font-style="normal" class="text-inner-tspan" font-weight="normal">carries</tspan><tspan font-style="normal" class="text-inner-tspan" font-weight="normal"> kind</tspan><tspan font-style="normal" class="text-inner-tspan" font-weight="normal"> and</tspan><tspan font-style="normal" class="text-inner-tspan" font-weight="normal"> ty</tspan><tspan font-style="normal" class="text-inner-tspan" font-weight="normal"> inline</tspan></tspan></text></g></g><g class="label" style="" transform="translate(0,11.5)"><g><rect class="background" style="stroke: none"/><text y="-10.1" style=""><tspan class="text-outer-tspan row" x="0" y="-0.1em" dy="1.1em"><tspan font-style="normal" class="text-inner-tspan" font-weight="normal">children</tspan><tspan font-style="normal" class="text-inner-tspan" font-weight="normal"> referenced</tspan><tspan font-style="normal" class="text-inner-tspan" font-weight="normal"> by</tspan><tspan font-style="normal" class="text-inner-tspan" font-weight="normal"> ExprId</tspan></tspan></text></g></g></g><g class="methods-group text" transform="translate(-119.39013671875, 59)"/><g class="divider" style=""><path d="M-131.39013671875 -22 C-52.45310753314851 -21.99969960823865, 26.483921652452977 -21.9993992164773, 131.39013671875 -21.999 M-131.39013671875 -22 C-56.26616382268094 -21.99971411867446, 18.857809073388125 -21.99942823734892, 131.39013671875 -21.999" stroke="#1a1a1a" stroke-width="1.3" fill="none" stroke-dasharray="0 0" style=""/></g><g class="divider" style=""><path d="M-131.39013671875 39 C-49.4497712427206 39.000311820839535, 32.4905942333088 39.00062364167906, 131.39013671875 39.001 M-131.39013671875 39 C-30.60392754785603 39.000383537956836, 70.18228162303794 39.00076707591367, 131.39013671875 39.001" stroke="#1a1a1a" stroke-width="1.3" fill="none" stroke-dasharray="0 0" style=""/></g></g><g class="node default" id="my-svg-classId-Match-2" data-look="classic" transform="translate(150.94482421875, 437)"><g class="basic label-container outer-path"><path d="M-133.466796875 -63 L133.466796875 -63 L133.466796875 63 L-133.466796875 63" stroke="none" stroke-width="0" fill="#FBF7F0" style=""/><path d="M-133.466796875 -63 C-51.542395929984636 -63, 30.382005015030728 -63, 133.466796875 -63 M-133.466796875 -63 C-79.13226955716182 -63, -24.79774223932364 -63, 133.466796875 -63 M133.466796875 -63 C133.466796875 -20.8740855110035, 133.466796875 21.251828977993, 133.466796875 63 M133.466796875 -63 C133.466796875 -21.14240096347256, 133.466796875 20.71519807305488, 133.466796875 63 M133.466796875 63 C66.08003107552364 63, -1.3067347239527294 63, -133.466796875 63 M133.466796875 63 C30.641188263129038 63, -72.18442034874192 63, -133.466796875 63 M-133.466796875 63 C-133.466796875 20.966501872200553, -133.466796875 -21.066996255598895, -133.466796875 -63 M-133.466796875 63 C-133.466796875 17.830523212816686, -133.466796875 -27.338953574366627, -133.466796875 -63" stroke="#1a1a1a" stroke-width="1.3" fill="none" stroke-dasharray="0 0" style=""/></g><g class="annotation-group text" transform="translate(0, -43)"/><g class="label-group text" transform="translate(-19.39453125, -43)"><g class="label" style="font-weight: bolder" transform="translate(0,-8.5)"><g><rect class="background" style="stroke: none"/><text y="-10.1" style=""><tspan class="text-outer-tspan row" x="0" y="-0.1em" dy="1.1em" font-weight=""><tspan font-style="normal" class="text-inner-tspan" font-weight="">Match</tspan></tspan></text></g></g></g><g class="members-group text" transform="translate(-121.466796875, -2)"><g class="label" style="" transform="translate(0,-8.5)"><g><rect class="background" style="stroke: none"/><text y="-10.1" style=""><tspan class="text-outer-tspan row" x="0" y="-0.1em" dy="1.1em"><tspan font-style="normal" class="text-inner-tspan" font-weight="normal">the</tspan><tspan font-style="normal" class="text-inner-tspan" font-weight="normal"> Match</tspan><tspan font-style="normal" class="text-inner-tspan" font-weight="normal"> ExprKind</tspan></tspan></text></g></g><g class="label" style="" transform="translate(0,11.5)"><g><rect class="background" style="stroke: none"/><text y="-10.1" style=""><tspan class="text-outer-tspan row" x="0" y="-0.1em" dy="1.1em"><tspan font-style="normal" class="text-inner-tspan" font-weight="normal">scrutinee,</tspan><tspan font-style="normal" class="text-inner-tspan" font-weight="normal"> arms,</tspan><tspan font-style="normal" class="text-inner-tspan" font-weight="normal"> match_source</tspan></tspan></text></g></g></g><g class="methods-group text" transform="translate(-121.466796875, 59)"/><g class="divider" style=""><path d="M-133.466796875 -22 C-40.457258904507356 -21.99965156300987, 52.55227906598529 -21.999303126019743, 133.466796875 -21.999 M-133.466796875 -22 C-69.4580738751982 -21.999760207315607, -5.449350875396391 -21.999520414631213, 133.466796875 -21.999" stroke="#1a1a1a" stroke-width="1.3" fill="none" stroke-dasharray="0 0" style=""/></g><g class="divider" style=""><path d="M-133.466796875 39 C-72.42434491861174 39.00022868029122, -11.381892962223475 39.000457360582445, 133.466796875 39.001 M-133.466796875 39 C-78.4921721797511 39.000205948692795, -23.517547484502174 39.00041189738558, 133.466796875 39.001" stroke="#1a1a1a" stroke-width="1.3" fill="none" stroke-dasharray="0 0" style=""/></g></g><g class="node default" id="my-svg-classId-Arm-3" data-look="classic" transform="translate(150.94482421875, 610)"><g class="basic label-container outer-path"><path d="M-95.7275390625 -53 L95.7275390625 -53 L95.7275390625 53 L-95.7275390625 53" stroke="none" stroke-width="0" fill="#FBF7F0" style=""/><path d="M-95.7275390625 -53 C-44.77600850302578 -53, 6.175522056448443 -53, 95.7275390625 -53 M-95.7275390625 -53 C-55.3590926316406 -53, -14.9906462007812 -53, 95.7275390625 -53 M95.7275390625 -53 C95.7275390625 -16.21628756965918, 95.7275390625 20.56742486068164, 95.7275390625 53 M95.7275390625 -53 C95.7275390625 -16.737709366437848, 95.7275390625 19.524581267124304, 95.7275390625 53 M95.7275390625 53 C39.890081044519576 53, -15.947376973460848 53, -95.7275390625 53 M95.7275390625 53 C39.6446448264575 53, -16.438249409584998 53, -95.7275390625 53 M-95.7275390625 53 C-95.7275390625 31.231555607871066, -95.7275390625 9.463111215742131, -95.7275390625 -53 M-95.7275390625 53 C-95.7275390625 12.481464744917595, -95.7275390625 -28.03707051016481, -95.7275390625 -53" stroke="#1a1a1a" stroke-width="1.3" fill="none" stroke-dasharray="0 0" style=""/></g><g class="annotation-group text" transform="translate(0, -33)"/><g class="label-group text" transform="translate(-12.197265625, -33)"><g class="label" style="font-weight: bolder" transform="translate(0,-8.5)"><g><rect class="background" style="stroke: none"/><text y="-10.1" style=""><tspan class="text-outer-tspan row" x="0" y="-0.1em" dy="1.1em" font-weight=""><tspan font-style="normal" class="text-inner-tspan" font-weight="">Arm</tspan></tspan></text></g></g></g><g class="members-group text" transform="translate(-83.7275390625, 8)"><g class="label" style="" transform="translate(0,-8.5)"><g><rect class="background" style="stroke: none"/><text y="-10.1" style=""><tspan class="text-outer-tspan row" x="0" y="-0.1em" dy="1.1em"><tspan font-style="normal" class="text-inner-tspan" font-weight="normal">pattern,</tspan><tspan font-style="normal" class="text-inner-tspan" font-weight="normal"> guard,</tspan><tspan font-style="normal" class="text-inner-tspan" font-weight="normal"> body</tspan></tspan></text></g></g></g><g class="methods-group text" transform="translate(-83.7275390625, 49)"/><g class="divider" style=""><path d="M-95.7275390625 -12 C-20.03192911919372 -11.99960462991797, 55.66368082411256 -11.999209259835942, 95.7275390625 -11.999 M-95.7275390625 -12 C-40.90824564542243 -11.999713670204239, 13.911047771655134 -11.999427340408477, 95.7275390625 -11.999" stroke="#1a1a1a" stroke-width="1.3" fill="none" stroke-dasharray="0 0" style=""/></g><g class="divider" style=""><path d="M-95.7275390625 29 C-49.96116867493519 29.00023904495423, -4.194798287370375 29.000478089908462, 95.7275390625 29.001 M-95.7275390625 29 C-39.81777242059701 29.000292025509008, 16.09199422130598 29.00058405101802, 95.7275390625 29.001" stroke="#1a1a1a" stroke-width="1.3" fill="none" stroke-dasharray="0 0" style=""/></g></g><g class="node default" id="my-svg-classId-PatKind-4" data-look="classic" transform="translate(150.94482421875, 783)"><g class="basic label-container outer-path"><path d="M-98.8310546875 -63 L98.8310546875 -63 L98.8310546875 63 L-98.8310546875 63" stroke="none" stroke-width="0" fill="#FBF7F0" style=""/><path d="M-98.8310546875 -63 C-58.02915117963734 -63, -17.227247671774677 -63, 98.8310546875 -63 M-98.8310546875 -63 C-57.87180672591967 -63, -16.912558764339337 -63, 98.8310546875 -63 M98.8310546875 -63 C98.8310546875 -36.114650448481456, 98.8310546875 -9.229300896962904, 98.8310546875 63 M98.8310546875 -63 C98.8310546875 -30.280204173105368, 98.8310546875 2.4395916537892646, 98.8310546875 63 M98.8310546875 63 C31.558717168990498 63, -35.713620349519005 63, -98.8310546875 63 M98.8310546875 63 C55.89640091163695 63, 12.961747135773905 63, -98.8310546875 63 M-98.8310546875 63 C-98.8310546875 20.533045310589905, -98.8310546875 -21.93390937882019, -98.8310546875 -63 M-98.8310546875 63 C-98.8310546875 12.607555193741192, -98.8310546875 -37.78488961251762, -98.8310546875 -63" stroke="#1a1a1a" stroke-width="1.3" fill="none" stroke-dasharray="0 0" style=""/></g><g class="annotation-group text" transform="translate(0, -43)"/><g class="label-group text" transform="translate(-27.091796875, -43)"><g class="label" style="font-weight: bolder" transform="translate(0,-8.5)"><g><rect class="background" style="stroke: none"/><text y="-10.1" style=""><tspan class="text-outer-tspan row" x="0" y="-0.1em" dy="1.1em" font-weight=""><tspan font-style="normal" class="text-inner-tspan" font-weight="">PatKind</tspan></tspan></text></g></g></g><g class="members-group text" transform="translate(-86.8310546875, -2)"><g class="label" style="" transform="translate(0,-8.5)"><g><rect class="background" style="stroke: none"/><text y="-10.1" style=""><tspan class="text-outer-tspan row" x="0" y="-0.1em" dy="1.1em"><tspan font-style="normal" class="text-inner-tspan" font-weight="normal">Wild,</tspan><tspan font-style="normal" class="text-inner-tspan" font-weight="normal"> Variant,</tspan><tspan font-style="normal" class="text-inner-tspan" font-weight="normal"> Leaf</tspan></tspan></text></g></g><g class="label" style="" transform="translate(0,11.5)"><g><rect class="background" style="stroke: none"/><text y="-10.1" style=""><tspan class="text-outer-tspan row" x="0" y="-0.1em" dy="1.1em"><tspan font-style="normal" class="text-inner-tspan" font-weight="normal">Constant,</tspan><tspan font-style="normal" class="text-inner-tspan" font-weight="normal"> Range,</tspan><tspan font-style="normal" class="text-inner-tspan" font-weight="normal"> Or</tspan></tspan></text></g></g></g><g class="methods-group text" transform="translate(-86.8310546875, 59)"/><g class="divider" style=""><path d="M-98.8310546875 -22 C-22.983547606233685 -21.99961627695201, 52.86395947503263 -21.999232553904022, 98.8310546875 -21.999 M-98.8310546875 -22 C-31.433710958007794 -21.999659027499288, 35.96363277148441 -21.999318054998575, 98.8310546875 -21.999" stroke="#1a1a1a" stroke-width="1.3" fill="none" stroke-dasharray="0 0" style=""/></g><g class="divider" style=""><path d="M-98.8310546875 39 C-57.24618561190549 39.00021038361478, -15.661316536310977 39.00042076722956, 98.8310546875 39.001 M-98.8310546875 39 C-25.292547428772608 39.00037204149795, 48.245959829954785 39.00074408299589, 98.8310546875 39.001" stroke="#1a1a1a" stroke-width="1.3" fill="none" stroke-dasharray="0 0" style=""/></g></g></g></g></g><defs><filter id="my-svg-drop-shadow" height="130%" width="130%"><feDropShadow dx="4" dy="4" stdDeviation="0" flood-opacity="0.06" flood-color="#000000"/></filter></defs><defs><filter id="my-svg-drop-shadow-small" height="150%" width="150%"><feDropShadow dx="2" dy="2" stdDeviation="0" flood-opacity="0.06" flood-color="#000000"/></filter></defs><linearGradient id="my-svg-gradient" gradientUnits="objectBoundingBox" x1="0%" y1="0%" x2="100%" y2="0%"><stop offset="0%" stop-color="#1a1a1a" stop-opacity="1"/><stop offset="100%" stop-color="hsl(36, 2.8571428571%, 83.137254902%)" stop-opacity="1"/></linearGradient></svg>