<svg id="my-svg" width="670.5225219726562" xmlns="http://www.w3.org/2000/svg" xmlns:xlink="http://www.w3.org/1999/xlink" class="classDiagram" height="488" viewBox="0 0 670.5225219726562 488" role="graphics-document document" aria-roledescription="class" aria-describedby="chart-desc-my-svg" aria-labelledby="chart-title-my-svg" style="background-color: transparent;"><title id="chart-title-my-svg">MIR Body anatomy</title><desc id="chart-desc-my-svg">A Body holds basic_blocks (each a list of straight-line statements ending in a single branching terminator) plus local_decls for the return place, arguments, and temporaries, with terminator successors forming the CFG edges.</desc><style>#my-svg{font-family:'JetBrains Mono','SF Mono','Berkeley Mono','Consolas','DejaVu Sans Mono',monospace;font-size:14px;fill:#1a1a1a;}@keyframes edge-animation-frame{from{stroke-dashoffset:0;}}@keyframes dash{to{stroke-dashoffset:0;}}#my-svg .edge-animation-slow{stroke-dasharray:9,5!important;stroke-dashoffset:900;animation:dash 50s linear infinite;stroke-linecap:round;}#my-svg .edge-animation-fast{stroke-dasharray:9,5!important;stroke-dashoffset:900;animation:dash 20s linear infinite;stroke-linecap:round;}#my-svg .error-icon{fill:#FBF7F0;}#my-svg .error-text{fill:#04080f;stroke:#04080f;}#my-svg .edge-thickness-normal{stroke-width:1px;}#my-svg .edge-thickness-thick{stroke-width:3.5px;}#my-svg .edge-pattern-solid{stroke-dasharray:0;}#my-svg .edge-thickness-invisible{stroke-width:0;fill:none;}#my-svg .edge-pattern-dashed{stroke-dasharray:3;}#my-svg .edge-pattern-dotted{stroke-dasharray:2;}#my-svg .marker{fill:#1a1a1a;stroke:#1a1a1a;}#my-svg .marker.cross{stroke:#1a1a1a;}#my-svg svg{font-family:'JetBrains Mono','SF Mono','Berkeley Mono','Consolas','DejaVu Sans Mono',monospace;font-size:14px;}#my-svg p{margin:0;}#my-svg g.classGroup text{fill:#1a1a1a;stroke:none;font-family:'JetBrains Mono','SF Mono','Berkeley Mono','Consolas','DejaVu Sans Mono',monospace;font-size:10px;}#my-svg g.classGroup text .title{font-weight:bolder;}#my-svg .cluster-label text{fill:#1a1a1a;}#my-svg .cluster-label span{color:#1a1a1a;}#my-svg .cluster-label span p{background-color:transparent;}#my-svg .cluster rect{fill:#F5EFE6;stroke:#1a1a1a;stroke-width:1px;}#my-svg .cluster text{fill:#1a1a1a;}#my-svg .cluster span{color:#1a1a1a;}#my-svg .nodeLabel,#my-svg .edgeLabel{color:#1a1a1a;}#my-svg .noteLabel .nodeLabel,#my-svg .noteLabel .edgeLabel{color:#1a1a1a;}#my-svg .edgeLabel .label rect{fill:#FBF7F0;}#my-svg .label text{fill:#1a1a1a;}#my-svg .labelBkg{background:#FBF7F0;}#my-svg .edgeLabel .label span{background:#FBF7F0;}#my-svg .classTitle{font-weight:bolder;}#my-svg .node rect,#my-svg .node circle,#my-svg .node ellipse,#my-svg .node polygon,#my-svg .node path{fill:#FBF7F0;stroke:#1a1a1a;stroke-width:1;}#my-svg .divider{stroke:#1a1a1a;stroke-width:1;}#my-svg g.clickable{cursor:pointer;}#my-svg g.classGroup rect{fill:#FBF7F0;stroke:#1a1a1a;}#my-svg g.classGroup line{stroke:#1a1a1a;stroke-width:1;}#my-svg .classLabel .box{stroke:none;stroke-width:0;fill:#FBF7F0;opacity:0.5;}#my-svg .classLabel .label{fill:#1a1a1a;font-size:10px;}#my-svg .relation{stroke:#1a1a1a;stroke-width:1;fill:none;}#my-svg .dashed-line{stroke-dasharray:3;}#my-svg .dotted-line{stroke-dasharray:1 2;}#my-svg [id$="-compositionStart"],#my-svg .composition{fill:#1a1a1a!important;stroke:#1a1a1a!important;stroke-width:1;}#my-svg [id$="-compositionEnd"],#my-svg .composition{fill:#1a1a1a!important;stroke:#1a1a1a!important;stroke-width:1;}#my-svg [id$="-dependencyStart"],#my-svg .dependency{fill:#1a1a1a!important;stroke:#1a1a1a!important;stroke-width:1;}#my-svg [id$="-dependencyEnd"],#my-svg .dependency{fill:#1a1a1a!important;stroke:#1a1a1a!important;stroke-width:1;}#my-svg [id$="-extensionStart"],#my-svg .extension{fill:transparent!important;stroke:#1a1a1a!important;stroke-width:1;}#my-svg [id$="-extensionEnd"],#my-svg .extension{fill:transparent!important;stroke:#1a1a1a!important;stroke-width:1;}#my-svg [id$="-aggregationStart"],#my-svg .aggregation{fill:transparent!important;stroke:#1a1a1a!important;stroke-width:1;}#my-svg [id$="-aggregationEnd"],#my-svg .aggregation{fill:transparent!important;stroke:#1a1a1a!important;stroke-width:1;}#my-svg [id$="-lollipopStart"],#my-svg .lollipop{fill:#FBF7F0!important;stroke:#1a1a1a!important;stroke-width:1;}#my-svg [id$="-lollipopEnd"],#my-svg .lollipop{fill:#FBF7F0!important;stroke:#1a1a1a!important;stroke-width:1;}#my-svg .edgeTerminals{font-size:11px;line-height:initial;}#my-svg .classTitleText{text-anchor:middle;font-size:18px;fill:#1a1a1a;}#my-svg .edgeLabel[data-look="neo"]{background-color:#FBF7F0;text-align:center;}#my-svg .edgeLabel[data-look="neo"] p{background-color:#FBF7F0;}#my-svg .edgeLabel[data-look="neo"] rect{opacity:0.5;background-color:#FBF7F0;fill:#FBF7F0;}#my-svg .label-icon{display:inline-block;height:1em;overflow:visible;vertical-align:-0.125em;}#my-svg .node .label-icon path{fill:currentColor;stroke:revert;stroke-width:revert;}#my-svg .node .neo-node{stroke:#1a1a1a;}#my-svg [data-look="neo"].node rect,#my-svg [data-look="neo"].cluster rect,#my-svg [data-look="neo"].node polygon{stroke:url(#my-svg-gradient);filter:drop-shadow( 1px 2px 2px rgba(185,185,185,1));}#my-svg [data-look="neo"].node path{stroke:url(#my-svg-gradient);stroke-width:1px;}#my-svg [data-look="neo"].node .outer-path{filter:drop-shadow( 1px 2px 2px rgba(185,185,185,1));}#my-svg [data-look="neo"].node .neo-line path{stroke:#1a1a1a;filter:none;}#my-svg [data-look="neo"].node circle{stroke:url(#my-svg-gradient);filter:drop-shadow( 1px 2px 2px rgba(185,185,185,1));}#my-svg [data-look="neo"].node circle .state-start{fill:#000000;}#my-svg [data-look="neo"].icon-shape .icon{fill:url(#my-svg-gradient);filter:drop-shadow( 1px 2px 2px rgba(185,185,185,1));}#my-svg [data-look="neo"].icon-shape .icon-neo path{stroke:url(#my-svg-gradient);filter:drop-shadow( 1px 2px 2px rgba(185,185,185,1));}#my-svg :root{--mermaid-font-family:"trebuchet ms",verdana,arial,sans-serif;}</style><g><defs><marker id="my-svg_class-aggregationStart" class="marker aggregation class" refX="18" refY="7" markerWidth="190" markerHeight="240" orient="auto"><path d="M 18,7 L9,13 L1,7 L9,1 Z"/></marker></defs><defs><marker id="my-svg_class-aggregationEnd" class="marker aggregation class" refX="1" refY="7" markerWidth="20" markerHeight="28" orient="auto"><path d="M 18,7 L9,13 L1,7 L9,1 Z"/></marker></defs><defs><marker id="my-svg_class-aggregationStart-margin" class="marker aggregation class" refX="15" refY="7" markerWidth="190" markerHeight="240" orient="auto" markerUnits="userSpaceOnUse"><path d="M 18,7 L9,13 L1,7 L9,1 Z" style="stroke-width: 2;"/></marker></defs><defs><marker id="my-svg_class-aggregationEnd-margin" class="marker aggregation class" refX="1" refY="7" markerWidth="20" markerHeight="28" orient="auto" markerUnits="userSpaceOnUse"><path d="M 18,7 L9,13 L1,7 L9,1 Z" style="stroke-width: 2;"/></marker></defs><defs><marker id="my-svg_class-extensionStart" class="marker extension class" refX="18" refY="7" markerWidth="20" markerHeight="28" orient="auto" markerUnits="userSpaceOnUse"><path d="M 1,7 L18,13 V 1 Z"/></marker></defs><defs><marker id="my-svg_class-extensionEnd" class="marker extension class" refX="1" refY="7" markerWidth="20" markerHeight="28" orient="auto"><path d="M 1,1 V 13 L18,7 Z"/></marker></defs><marker id="my-svg_class-extensionStart-margin" class="marker extension class" refX="18" refY="7" markerWidth="20" markerHeight="28" orient="auto" markerUnits="userSpaceOnUse" viewBox="0 0 20 14"><polygon points="10,7 18,13 18,1" style="stroke-width: 2; stroke-dasharray: 0;"/></marker><defs><marker id="my-svg_class-extensionEnd-margin" class="marker extension class" refX="9" refY="7" markerWidth="20" markerHeight="28" orient="auto" markerUnits="userSpaceOnUse" viewBox="0 0 20 14"><polygon points="10,1 10,13 18,7" style="stroke-width: 2; stroke-dasharray: 0;"/></marker></defs><defs><marker id="my-svg_class-compositionStart" class="marker composition class" refX="18" refY="7" markerWidth="190" markerHeight="240" orient="auto"><path d="M 18,7 L9,13 L1,7 L9,1 Z"/></marker></defs><defs><marker id="my-svg_class-compositionEnd" class="marker composition class" refX="1" refY="7" markerWidth="20" markerHeight="28" orient="auto"><path d="M 18,7 L9,13 L1,7 L9,1 Z"/></marker></defs><defs><marker id="my-svg_class-compositionStart-margin" class="marker composition class" refX="15" refY="7" markerWidth="190" markerHeight="240" orient="auto" markerUnits="userSpaceOnUse"><path viewBox="0 0 15 15" d="M 18,7 L9,13 L1,7 L9,1 Z" style="stroke-width: 0;"/></marker></defs><defs><marker id="my-svg_class-compositionEnd-margin" class="marker composition class" refX="3.5" refY="7" markerWidth="20" markerHeight="28" orient="auto" markerUnits="userSpaceOnUse"><path d="M 18,7 L9,13 L1,7 L9,1 Z" style="stroke-width: 0;"/></marker></defs><defs><marker id="my-svg_class-dependencyStart" class="marker dependency class" refX="6" refY="7" markerWidth="190" markerHeight="240" orient="auto"><path d="M 5,7 L9,13 L1,7 L9,1 Z"/></marker></defs><defs><marker id="my-svg_class-dependencyEnd" class="marker dependency class" refX="13" refY="7" markerWidth="20" markerHeight="28" orient="auto"><path d="M 18,7 L9,13 L14,7 L9,1 Z"/></marker></defs><defs><marker id="my-svg_class-dependencyStart-margin" class="marker dependency class" refX="4" refY="7" markerWidth="190" markerHeight="240" orient="auto" markerUnits="userSpaceOnUse"><path d="M 5,7 L9,13 L1,7 L9,1 Z" style="stroke-width: 0;"/></marker></defs><defs><marker id="my-svg_class-dependencyEnd-margin" class="marker dependency class" refX="16" refY="7" markerWidth="20" markerHeight="28" orient="auto" markerUnits="userSpaceOnUse"><path d="M 18,7 L9,13 L14,7 L9,1 Z" style="stroke-width: 0;"/></marker></defs><defs><marker id="my-svg_class-lollipopStart" class="marker lollipop class" refX="13" refY="7" markerWidth="190" markerHeight="240" orient="auto"><circle fill="transparent" cx="7" cy="7" r="6"/></marker></defs><defs><marker id="my-svg_class-lollipopEnd" class="marker lollipop class" refX="1" refY="7" markerWidth="190" markerHeight="240" orient="auto"><circle fill="transparent" cx="7" cy="7" r="6"/></marker></defs><defs><marker id="my-svg_class-lollipopStart-margin" class="marker lollipop class" refX="13" refY="7" markerWidth="190" markerHeight="240" orient="auto" markerUnits="userSpaceOnUse"><circle fill="transparent" cx="7" cy="7" r="6" stroke-width="2"/></marker></defs><defs><marker id="my-svg_class-lollipopEnd-margin" class="marker lollipop class" refX="1" refY="7" markerWidth="190" markerHeight="240" orient="auto" markerUnits="userSpaceOnUse"><circle fill="transparent" cx="7" cy="7" r="6" stroke-width="2"/></marker></defs><g class="root"><g class="clusters"/><g class="edgePaths"><path d="M347.787,94.686L367.165,102.655C386.544,110.624,425.301,126.562,444.679,141.298C464.058,156.033,464.058,169.567,464.058,176.333L464.058,183.1" id="my-svg-id_Body_BasicBlockData_1" class="edge-thickness-normal edge-pattern-solid relation" style=";;;" data-edge="true" data-et="edge" data-id="id_Body_BasicBlockData_1" data-points="W3sieCI6MzMxLjgzMzAwNzgxMjUsInkiOjg4LjEyNTAwMTM4NTg2NTY0fSx7IngiOjQ2NC4wNTc4NjEzMjgxMjUsInkiOjE0Mi41fSx7IngiOjQ2NC4wNTc4NjEzMjgxMjUsInkiOjE4My4wOTk5OTg0NzQxMjExfV0=" data-look="classic" marker-start="url(#my-svg_class-compositionStart)"/><path d="M202.121,126.347L199.494,129.04C196.868,131.732,191.615,137.116,188.989,144.558C186.363,152,186.363,161.5,186.363,166.25L186.363,171" id="my-svg-id_Body_LocalDecls_2" class="edge-thickness-normal edge-pattern-solid relation" style=";;;" data-edge="true" data-et="edge" data-id="id_Body_LocalDecls_2" data-points="W3sieCI6MjE0LjE2NjY2MjY3MjU0NiwieSI6MTE0fSx7IngiOjE4Ni4zNjI1NDg4MjgxMjUsInkiOjE0Mi41fSx7IngiOjE4Ni4zNjI1NDg4MjgxMjUsInkiOjE3MX1d" data-look="classic" marker-start="url(#my-svg_class-compositionStart)"/><path d="M308.612,295.975L283.925,304.229C259.239,312.483,209.865,328.992,185.179,341.996C160.492,355,160.492,364.5,160.492,369.25L160.492,374" id="my-svg-id_BasicBlockData_Statement_3" class="edge-thickness-normal edge-pattern-solid relation" style=";;;" data-edge="true" data-et="edge" data-id="id_BasicBlockData_Statement_3" data-points="W3sieCI6MzI0Ljk3MTQzNTU0Njg3NSwieSI6MjkwLjUwNDgzNzEyMDY0ODV9LHsieCI6MTYwLjQ5MjE4NzUsInkiOjM0NS41fSx7IngiOjE2MC40OTIxODc1LCJ5IjozNzR9XQ==" data-look="classic" marker-start="url(#my-svg_class-compositionStart)"/><path d="M419.749,319.792L417.244,324.077C414.74,328.361,409.73,336.931,412.191,345.965C414.652,355,424.585,364.5,429.551,369.25L434.517,374" id="my-svg-id_BasicBlockData_Terminator_4" class="edge-thickness-normal edge-pattern-solid relation" style=";;;" data-edge="true" data-et="edge" data-id="id_BasicBlockData_Terminator_4" data-points="W3sieCI6NDI4LjQ1NTI3MjU0NTQ2LCJ5IjozMDQuOTAwMDAxNTI1ODc4OX0seyJ4Ijo0MDQuNzIwMjE0ODQzNzUsInkiOjM0NS41fSx7IngiOjQzNC41MTY4ODAxNTI0MTU2NCwieSI6Mzc0fV0=" data-look="classic" marker-start="url(#my-svg_class-compositionStart)"/><path d="M545.34,374L550.306,369.25C555.272,364.5,565.204,355,563.503,344.158C561.802,333.316,548.468,321.132,541.801,315.039L535.134,308.947" id="my-svg-id_Terminator_BasicBlockData_5" class="edge-thickness-normal edge-pattern-dashed relation" style=";;;" data-edge="true" data-et="edge" data-id="id_Terminator_BasicBlockData_5" data-points="W3sieCI6NTQ1LjMzOTU2NTE2MDA4NDQsInkiOjM3NH0seyJ4Ijo1NzUuMTM2MjMwNDY4NzUsInkiOjM0NS41fSx7IngiOjUzMC43MDQ4ODQ0ODIzNzMyLCJ5IjozMDQuOTAwMDAxNTI1ODc4OX1d" data-look="classic" marker-end="url(#my-svg_class-dependencyEnd)"/></g><g class="edgeLabels"><g class="edgeLabel" transform="translate(464.057861328125, 142.5)"><g class="label" data-id="id_Body_BasicBlockData_1" transform="translate(0, -9.500000953674316)"><g><rect class="background" style="" x="-48.1875" y="-0.9999990463256836" width="96.375" height="21"/><text y="-10.1" text-anchor="middle" style=""><tspan class="text-outer-tspan row" x="0" y="-0.1em" dy="1.1em" text-anchor="middle"><tspan font-style="normal" class="text-inner-tspan" font-weight="normal">basic_blocks</tspan></tspan></text></g></g></g><g class="edgeLabel" transform="translate(186.362548828125, 142.5)"><g class="label" data-id="id_Body_LocalDecls_2" transform="translate(0, -9.500000953674316)"><g><rect class="background" style="" x="-44.3359375" y="-0.9999990463256836" width="88.671875" height="21"/><text y="-10.1" text-anchor="middle" style=""><tspan class="text-outer-tspan row" x="0" y="-0.1em" dy="1.1em" text-anchor="middle"><tspan font-style="normal" class="text-inner-tspan" font-weight="normal">local_decls</tspan></tspan></text></g></g></g><g class="edgeLabel" transform="translate(160.4921875, 345.5)"><g class="label" data-id="id_BasicBlockData_Statement_3" transform="translate(0, -9.500000953674316)"><g><rect class="background" style="" x="-40.4921875" y="-0.9999990463256836" width="80.984375" height="21"/><text y="-10.1" text-anchor="middle" style=""><tspan class="text-outer-tspan row" x="0" y="-0.1em" dy="1.1em" text-anchor="middle"><tspan font-style="normal" class="text-inner-tspan" font-weight="normal">statements</tspan></tspan></text></g></g></g><g class="edgeLabel" transform="translate(404.72021484375, 345.5)"><g class="label" data-id="id_BasicBlockData_Terminator_4" transform="translate(-0.150390625, -9.500000953674316)"><g><rect class="background" style="" x="-55.8828125" y="-0.9999990463256836" width="112.06640625" height="21"/><text y="-10.1" text-anchor="middle" style=""><tspan class="text-outer-tspan row" x="0" y="-0.1em" dy="1.1em" text-anchor="middle"><tspan font-style="normal" class="text-inner-tspan" font-weight="normal">one</tspan><tspan font-style="normal" class="text-inner-tspan" font-weight="normal"> terminator</tspan></tspan></text></g></g></g><g class="edgeLabel" transform="translate(568.13973, 339.10682)"><g class="label" data-id="id_Terminator_BasicBlockData_5" transform="translate(0, -9.500000953674316)"><g><rect class="background" style="" x="-94.3828125" y="-0.9999990463256836" width="188.765625" height="21"/><text y="-10.1" text-anchor="middle" style=""><tspan class="text-outer-tspan row" x="0" y="-0.1em" dy="1.1em" text-anchor="middle"><tspan font-style="normal" class="text-inner-tspan" font-weight="normal">successors</tspan><tspan font-style="normal" class="text-inner-tspan" font-weight="normal"> are</tspan><tspan font-style="normal" class="text-inner-tspan" font-weight="normal"> CFG</tspan><tspan font-style="normal" class="text-inner-tspan" font-weight="normal"> edges</tspan></tspan></text></g></g></g></g><g class="nodes"><g class="node default" id="my-svg-classId-Body-0" data-look="classic" transform="translate(265.87255859375, 61)"><g class="basic label-container outer-path"><path d="M-65.96044921875 -53 L65.96044921875 -53 L65.96044921875 53 L-65.96044921875 53" stroke="none" stroke-width="0" fill="#FBF7F0" style=""/><path d="M-65.96044921875 -53 C-19.484256212823716 -53, 26.991936793102568 -53, 65.96044921875 -53 M-65.96044921875 -53 C-17.167880858354934 -53, 31.624687502040132 -53, 65.96044921875 -53 M65.96044921875 -53 C65.96044921875 -15.86317301553273, 65.96044921875 21.27365396893454, 65.96044921875 53 M65.96044921875 -53 C65.96044921875 -23.587956008301056, 65.96044921875 5.824087983397888, 65.96044921875 53 M65.96044921875 53 C16.007362262953436 53, -33.94572469284313 53, -65.96044921875 53 M65.96044921875 53 C25.656343133122455 53, -14.64776295250509 53, -65.96044921875 53 M-65.96044921875 53 C-65.96044921875 28.422224451684347, -65.96044921875 3.8444489033686935, -65.96044921875 -53 M-65.96044921875 53 C-65.96044921875 30.808001756019056, -65.96044921875 8.616003512038112, -65.96044921875 -53" stroke="#1a1a1a" stroke-width="1.3" fill="none" stroke-dasharray="0 0" style=""/></g><g class="annotation-group text" transform="translate(0, -33)"/><g class="label-group text" transform="translate(-15.5458984375, -33)"><g class="label" style="font-weight: bolder" transform="translate(0,-8.5)"><g><rect class="background" style="stroke: none"/><text y="-10.1" style=""><tspan class="text-outer-tspan row" x="0" y="-0.1em" dy="1.1em" font-weight=""><tspan font-style="normal" class="text-inner-tspan" font-weight="">Body</tspan></tspan></text></g></g></g><g class="members-group text" transform="translate(-53.96044921875, 8)"><g class="label" style="" transform="translate(0,-8.5)"><g><rect class="background" style="stroke: none"/><text y="-10.1" style=""><tspan class="text-outer-tspan row" x="0" y="-0.1em" dy="1.1em"><tspan font-style="normal" class="text-inner-tspan" font-weight="normal">one</tspan><tspan font-style="normal" class="text-inner-tspan" font-weight="normal"> function</tspan></tspan></text></g></g></g><g class="methods-group text" transform="translate(-53.96044921875, 49)"/><g class="divider" style=""><path d="M-65.96044921875 -12 C-28.849086411586804 -11.999718684732695, 8.262276395576393 -11.999437369465388, 65.96044921875 -11.999 M-65.96044921875 -12 C-22.682135876044036 -11.999671937396915, 20.596177466661928 -11.99934387479383, 65.96044921875 -11.999" stroke="#1a1a1a" stroke-width="1.3" fill="none" stroke-dasharray="0 0" style=""/></g><g class="divider" style=""><path d="M-65.96044921875 29 C-30.940358304804676 29.000265462798758, 4.079732609140649 29.000530925597516, 65.96044921875 29.001 M-65.96044921875 29 C-20.530985628343466 29.00034436896753, 24.89847796206307 29.000688737935057, 65.96044921875 29.001" stroke="#1a1a1a" stroke-width="1.3" fill="none" stroke-dasharray="0 0" style=""/></g></g><g class="node default" id="my-svg-classId-LocalDecls-1" data-look="classic" transform="translate(186.362548828125, 244)"><g class="basic label-container outer-path"><path d="M-104.60888671875 -73 L104.60888671875 -73 L104.60888671875 73 L-104.60888671875 73" stroke="none" stroke-width="0" fill="#FBF7F0" style=""/><path d="M-104.60888671875 -73 C-37.524445755562056 -73, 29.55999520762589 -73, 104.60888671875 -73 M-104.60888671875 -73 C-36.93069128350335 -73, 30.7475041517433 -73, 104.60888671875 -73 M104.60888671875 -73 C104.60888671875 -23.452745311603444, 104.60888671875 26.094509376793113, 104.60888671875 73 M104.60888671875 -73 C104.60888671875 -36.852843458968586, 104.60888671875 -0.7056869179371716, 104.60888671875 73 M104.60888671875 73 C29.658351287908488 73, -45.292184142933024 73, -104.60888671875 73 M104.60888671875 73 C55.485380874147744 73, 6.361875029545487 73, -104.60888671875 73 M-104.60888671875 73 C-104.60888671875 18.84161057343664, -104.60888671875 -35.31677885312672, -104.60888671875 -73 M-104.60888671875 73 C-104.60888671875 42.93972368838817, -104.60888671875 12.87944737677634, -104.60888671875 -73" stroke="#1a1a1a" stroke-width="1.3" fill="none" stroke-dasharray="0 0" style=""/></g><g class="annotation-group text" transform="translate(0, -53)"/><g class="label-group text" transform="translate(-38.6376953125, -53)"><g class="label" style="font-weight: bolder" transform="translate(0,-8.5)"><g><rect class="background" style="stroke: none"/><text y="-10.1" style=""><tspan class="text-outer-tspan row" x="0" y="-0.1em" dy="1.1em" font-weight=""><tspan font-style="normal" class="text-inner-tspan" font-weight="">LocalDecls</tspan></tspan></text></g></g></g><g class="members-group text" transform="translate(-92.60888671875, -12)"><g class="label" style="" transform="translate(0,-8.5)"><g><rect class="background" style="stroke: none"/><text y="-10.1" style=""><tspan class="text-outer-tspan row" x="0" y="-0.1em" dy="1.1em"><tspan font-style="normal" class="text-inner-tspan" font-weight="normal">_0</tspan><tspan font-style="normal" class="text-inner-tspan" font-weight="normal"> the</tspan><tspan font-style="normal" class="text-inner-tspan" font-weight="normal"> return</tspan><tspan font-style="normal" class="text-inner-tspan" font-weight="normal"> place</tspan></tspan></text></g></g><g class="label" style="" transform="translate(0,11.5)"><g><rect class="background" style="stroke: none"/><text y="-10.1" style=""><tspan class="text-outer-tspan row" x="0" y="-0.1em" dy="1.1em"><tspan font-style="normal" class="text-inner-tspan" font-weight="normal">_1</tspan><tspan font-style="normal" class="text-inner-tspan" font-weight="normal"> onward</tspan><tspan font-style="normal" class="text-inner-tspan" font-weight="normal"> the</tspan><tspan font-style="normal" class="text-inner-tspan" font-weight="normal"> args</tspan></tspan></text></g></g><g class="label" style="" transform="translate(0,31.5)"><g><rect class="background" style="stroke: none"/><text y="-10.1" style=""><tspan class="text-outer-tspan row" x="0" y="-0.1em" dy="1.1em"><tspan font-style="normal" class="text-inner-tspan" font-weight="normal">_n</tspan><tspan font-style="normal" class="text-inner-tspan" font-weight="normal"> the</tspan><tspan font-style="normal" class="text-inner-tspan" font-weight="normal"> temps</tspan></tspan></text></g></g></g><g class="methods-group text" transform="translate(-92.60888671875, 69)"/><g class="divider" style=""><path d="M-104.60888671875 -32 C-21.457208329344567 -31.99960255920411, 61.694470060060866 -31.99920511840822, 104.60888671875 -31.999 M-104.60888671875 -32 C-61.996201018140695 -31.999796323777847, -19.38351531753139 -31.999592647555698, 104.60888671875 -31.999" stroke="#1a1a1a" stroke-width="1.3" fill="none" stroke-dasharray="0 0" style=""/></g><g class="divider" style=""><path d="M-104.60888671875 49 C-24.20817743579839 49.00038429196508, 56.19253184715322 49.000768583930146, 104.60888671875 49.001 M-104.60888671875 49 C-35.05761276329042 49.00033243482527, 34.49366119216916 49.000664869650535, 104.60888671875 49.001" stroke="#1a1a1a" stroke-width="1.3" fill="none" stroke-dasharray="0 0" style=""/></g></g><g class="node default" id="my-svg-classId-BasicBlockData-2" data-look="classic" transform="translate(464.057861328125, 244)"><g class="basic label-container outer-path"><path d="M-139.08642578125 -60.900001525878906 L139.08642578125 -60.900001525878906 L139.08642578125 60.900001525878906 L-139.08642578125 60.900001525878906" stroke="none" stroke-width="0" fill="#FBF7F0" style=""/><path d="M-139.08642578125 -60.900001525878906 C-47.72674948178012 -60.900001525878906, 43.632926817689764 -60.900001525878906, 139.08642578125 -60.900001525878906 M-139.08642578125 -60.900001525878906 C-77.27950360353105 -60.900001525878906, -15.472581425812123 -60.900001525878906, 139.08642578125 -60.900001525878906 M139.08642578125 -60.900001525878906 C139.08642578125 -14.666322439545603, 139.08642578125 31.5673566467877, 139.08642578125 60.900001525878906 M139.08642578125 -60.900001525878906 C139.08642578125 -15.895335613567134, 139.08642578125 29.109330298744638, 139.08642578125 60.900001525878906 M139.08642578125 60.900001525878906 C29.740010510185 60.900001525878906, -79.60640476088 60.900001525878906, -139.08642578125 60.900001525878906 M139.08642578125 60.900001525878906 C76.85171660410357 60.900001525878906, 14.617007426957144 60.900001525878906, -139.08642578125 60.900001525878906 M-139.08642578125 60.900001525878906 C-139.08642578125 25.118964400934956, -139.08642578125 -10.662072724008993, -139.08642578125 -60.900001525878906 M-139.08642578125 60.900001525878906 C-139.08642578125 31.458344462714567, -139.08642578125 2.0166873995502286, -139.08642578125 -60.900001525878906" stroke="#1a1a1a" stroke-width="1.3" fill="none" stroke-dasharray="0 0" style=""/></g><g class="annotation-group text" transform="translate(0, -40.900001525878906)"/><g class="label-group text" transform="translate(-54.0322265625, -40.900001525878906)"><g class="label" style="font-weight: bolder" transform="translate(0,-8.5)"><g><rect class="background" style="stroke: none"/><text y="-10.1" style=""><tspan class="text-outer-tspan row" x="0" y="-0.1em" dy="1.1em" font-weight=""><tspan font-style="normal" class="text-inner-tspan" font-weight="">BasicBlockData</tspan></tspan></text></g></g></g><g class="members-group text" transform="translate(-127.08642578125, 0.09999847412109375)"><g class="label" style="" transform="translate(0,-8.100000381469727)"><g><rect class="background" style="stroke: none"/><text y="-10.1" style=""><tspan class="text-outer-tspan row" x="0" y="-0.1em" dy="1.1em"><tspan font-style="normal" class="text-inner-tspan" font-weight="normal">straight-line,</tspan><tspan font-style="normal" class="text-inner-tspan" font-weight="normal"> no</tspan><tspan font-style="normal" class="text-inner-tspan" font-weight="normal"> branches</tspan></tspan><tspan class="text-outer-tspan row" x="0" y="1em" dy="1.1em"><tspan font-style="normal" class="text-inner-tspan" font-weight="normal">inside</tspan></tspan></text></g></g></g><g class="methods-group text" transform="translate(-127.08642578125, 56.5)"/><g class="divider" style=""><path d="M-139.08642578125 -19.900001525878906 C-73.15477162561673 -19.89976450902487, -7.223117469983464 -19.899527492170833, 139.08642578125 -19.899001525878905 M-139.08642578125 -19.900001525878906 C-56.04278842096683 -19.899702993376923, 27.00084893931634 -19.899404460874944, 139.08642578125 -19.899001525878905" stroke="#1a1a1a" stroke-width="1.3" fill="none" stroke-dasharray="0 0" style=""/></g><g class="divider" style=""><path d="M-139.08642578125 36.5 C-46.176265942415796 36.500334001536515, 46.73389389641841 36.50066800307303, 139.08642578125 36.501 M-139.08642578125 36.5 C-81.23401289901358 36.500207972893676, -23.381600016777142 36.50041594578735, 139.08642578125 36.501" stroke="#1a1a1a" stroke-width="1.3" fill="none" stroke-dasharray="0 0" style=""/></g></g><g class="node default" id="my-svg-classId-Statement-3" data-look="classic" transform="translate(160.4921875, 427)"><g class="basic label-container outer-path"><path d="M-152.4921875 -53 L152.4921875 -53 L152.4921875 53 L-152.4921875 53" stroke="none" stroke-width="0" fill="#FBF7F0" style=""/><path d="M-152.4921875 -53 C-78.18306867871608 -53, -3.873949857432166 -53, 152.4921875 -53 M-152.4921875 -53 C-75.99593244462496 -53, 0.5003226107500893 -53, 152.4921875 -53 M152.4921875 -53 C152.4921875 -30.18221491786548, 152.4921875 -7.364429835730959, 152.4921875 53 M152.4921875 -53 C152.4921875 -31.766252598283817, 152.4921875 -10.532505196567634, 152.4921875 53 M152.4921875 53 C88.64169628668998 53, 24.791205073379942 53, -152.4921875 53 M152.4921875 53 C81.29304580056173 53, 10.093904101123456 53, -152.4921875 53 M-152.4921875 53 C-152.4921875 29.188658614244403, -152.4921875 5.377317228488806, -152.4921875 -53 M-152.4921875 53 C-152.4921875 13.34194149193462, -152.4921875 -26.31611701613076, -152.4921875 -53" stroke="#1a1a1a" stroke-width="1.3" fill="none" stroke-dasharray="0 0" style=""/></g><g class="annotation-group text" transform="translate(0, -33)"/><g class="label-group text" transform="translate(-34.640625, -33)"><g class="label" style="font-weight: bolder" transform="translate(0,-8.5)"><g><rect class="background" style="stroke: none"/><text y="-10.1" style=""><tspan class="text-outer-tspan row" x="0" y="-0.1em" dy="1.1em" font-weight=""><tspan font-style="normal" class="text-inner-tspan" font-weight="">Statement</tspan></tspan></text></g></g></g><g class="members-group text" transform="translate(-140.4921875, 8)"><g class="label" style="" transform="translate(0,-8.5)"><g><rect class="background" style="stroke: none"/><text y="-10.1" style=""><tspan class="text-outer-tspan row" x="0" y="-0.1em" dy="1.1em"><tspan font-style="normal" class="text-inner-tspan" font-weight="normal">Assign,</tspan><tspan font-style="normal" class="text-inner-tspan" font-weight="normal"> StorageLive,</tspan><tspan font-style="normal" class="text-inner-tspan" font-weight="normal"> StorageDead</tspan></tspan></text></g></g></g><g class="methods-group text" transform="translate(-140.4921875, 49)"/><g class="divider" style=""><path d="M-152.4921875 -12 C-73.84529219011837 -11.999742128116203, 4.801603119763257 -11.999484256232407, 152.4921875 -11.999 M-152.4921875 -12 C-74.66835335134762 -11.999744826815641, 3.1554807973047616 -11.999489653631281, 152.4921875 -11.999" stroke="#1a1a1a" stroke-width="1.3" fill="none" stroke-dasharray="0 0" style=""/></g><g class="divider" style=""><path d="M-152.4921875 29 C-48.1898707702652 29.000341992329048, 56.112445959469596 29.0006839846581, 152.4921875 29.001 M-152.4921875 29 C-85.10937053978991 29.000220938587297, -17.726553579579814 29.000441877174595, 152.4921875 29.001" stroke="#1a1a1a" stroke-width="1.3" fill="none" stroke-dasharray="0 0" style=""/></g></g><g class="node default" id="my-svg-classId-Terminator-4" data-look="classic" transform="translate(489.92822265625, 427)"><g class="basic label-container outer-path"><path d="M-142.94384765625 -53 L142.94384765625 -53 L142.94384765625 53 L-142.94384765625 53" stroke="none" stroke-width="0" fill="#FBF7F0" style=""/><path d="M-142.94384765625 -53 C-39.599406254407995 -53, 63.74503514743401 -53, 142.94384765625 -53 M-142.94384765625 -53 C-51.526982010575864 -53, 39.88988363509827 -53, 142.94384765625 -53 M142.94384765625 -53 C142.94384765625 -17.490147417765257, 142.94384765625 18.019705164469485, 142.94384765625 53 M142.94384765625 -53 C142.94384765625 -11.700774586347514, 142.94384765625 29.598450827304973, 142.94384765625 53 M142.94384765625 53 C42.84048514178755 53, -57.26287737267489 53, -142.94384765625 53 M142.94384765625 53 C69.27953099791458 53, -4.384785660420846 53, -142.94384765625 53 M-142.94384765625 53 C-142.94384765625 25.32127499986592, -142.94384765625 -2.357450000268159, -142.94384765625 -53 M-142.94384765625 53 C-142.94384765625 19.35724282323163, -142.94384765625 -14.28551435353674, -142.94384765625 -53" stroke="#1a1a1a" stroke-width="1.3" fill="none" stroke-dasharray="0 0" style=""/></g><g class="annotation-group text" transform="translate(0, -33)"/><g class="label-group text" transform="translate(-38.6376953125, -33)"><g class="label" style="font-weight: bolder" transform="translate(0,-8.5)"><g><rect class="background" style="stroke: none"/><text y="-10.1" style=""><tspan class="text-outer-tspan row" x="0" y="-0.1em" dy="1.1em" font-weight=""><tspan font-style="normal" class="text-inner-tspan" font-weight="">Terminator</tspan></tspan></text></g></g></g><g class="members-group text" transform="translate(-130.94384765625, 8)"><g class="label" style="" transform="translate(0,-8.5)"><g><rect class="background" style="stroke: none"/><text y="-10.1" style=""><tspan class="text-outer-tspan row" x="0" y="-0.1em" dy="1.1em"><tspan font-style="normal" class="text-inner-tspan" font-weight="normal">Goto,</tspan><tspan font-style="normal" class="text-inner-tspan" font-weight="normal"> SwitchInt,</tspan><tspan font-style="normal" class="text-inner-tspan" font-weight="normal"> Call,</tspan><tspan font-style="normal" class="text-inner-tspan" font-weight="normal"> Return</tspan></tspan></text></g></g></g><g class="methods-group text" transform="translate(-130.94384765625, 49)"/><g class="divider" style=""><path d="M-142.94384765625 -12 C-84.44486709495949 -11.999795377760147, -25.945886533668983 -11.999590755520295, 142.94384765625 -11.999 M-142.94384765625 -12 C-78.1428630692532 -11.999773334125079, -13.34187848225639 -11.99954666825016, 142.94384765625 -11.999" stroke="#1a1a1a" stroke-width="1.3" fill="none" stroke-dasharray="0 0" style=""/></g><g class="divider" style=""><path d="M-142.94384765625 29 C-50.78287019156369 29.0003223677653, 41.37810727312262 29.0006447355306, 142.94384765625 29.001 M-142.94384765625 29 C-36.6876860152649 29.000371670986137, 69.5684756257202 29.000743341972274, 142.94384765625 29.001" stroke="#1a1a1a" stroke-width="1.3" fill="none" stroke-dasharray="0 0" style=""/></g></g></g></g></g><defs><filter id="my-svg-drop-shadow" height="130%" width="130%"><feDropShadow dx="4" dy="4" stdDeviation="0" flood-opacity="0.06" flood-color="#000000"/></filter></defs><defs><filter id="my-svg-drop-shadow-small" height="150%" width="150%"><feDropShadow dx="2" dy="2" stdDeviation="0" flood-opacity="0.06" flood-color="#000000"/></filter></defs><linearGradient id="my-svg-gradient" gradientUnits="objectBoundingBox" x1="0%" y1="0%" x2="100%" y2="0%"><stop offset="0%" stop-color="#1a1a1a" stop-opacity="1"/><stop offset="100%" stop-color="hsl(36, 2.8571428571%, 83.137254902%)" stop-opacity="1"/></linearGradient></svg>