<svg id="my-svg" width="434.8212890625" xmlns="http://www.w3.org/2000/svg" xmlns:xlink="http://www.w3.org/1999/xlink" class="classDiagram" height="721.7999877929688" viewBox="0 0 434.8212890625 721.7999877929688" role="graphics-document document" aria-roledescription="class" aria-describedby="chart-desc-my-svg" aria-labelledby="chart-title-my-svg" style="background-color: transparent;"><title id="chart-title-my-svg">Place-Operand-Rvalue trichotomy</title><desc id="chart-desc-my-svg">Statement::Assign pairs a left-hand Place with an Rvalue that computes a value from Operands (Copy, Move, or Constant), and because Rvalues take Operands not Rvalues, nesting is impossible and three-address flatness is enforced.</desc><style>#my-svg{font-family:'JetBrains Mono','SF Mono','Berkeley Mono','Consolas','DejaVu Sans Mono',monospace;font-size:14px;fill:#1a1a1a;}@keyframes edge-animation-frame{from{stroke-dashoffset:0;}}@keyframes dash{to{stroke-dashoffset:0;}}#my-svg .edge-animation-slow{stroke-dasharray:9,5!important;stroke-dashoffset:900;animation:dash 50s linear infinite;stroke-linecap:round;}#my-svg .edge-animation-fast{stroke-dasharray:9,5!important;stroke-dashoffset:900;animation:dash 20s linear infinite;stroke-linecap:round;}#my-svg .error-icon{fill:#FBF7F0;}#my-svg .error-text{fill:#04080f;stroke:#04080f;}#my-svg .edge-thickness-normal{stroke-width:1px;}#my-svg .edge-thickness-thick{stroke-width:3.5px;}#my-svg .edge-pattern-solid{stroke-dasharray:0;}#my-svg .edge-thickness-invisible{stroke-width:0;fill:none;}#my-svg .edge-pattern-dashed{stroke-dasharray:3;}#my-svg .edge-pattern-dotted{stroke-dasharray:2;}#my-svg .marker{fill:#1a1a1a;stroke:#1a1a1a;}#my-svg .marker.cross{stroke:#1a1a1a;}#my-svg svg{font-family:'JetBrains Mono','SF Mono','Berkeley Mono','Consolas','DejaVu Sans Mono',monospace;font-size:14px;}#my-svg p{margin:0;}#my-svg g.classGroup text{fill:#1a1a1a;stroke:none;font-family:'JetBrains Mono','SF Mono','Berkeley Mono','Consolas','DejaVu Sans Mono',monospace;font-size:10px;}#my-svg g.classGroup text .title{font-weight:bolder;}#my-svg .cluster-label text{fill:#1a1a1a;}#my-svg .cluster-label span{color:#1a1a1a;}#my-svg .cluster-label span p{background-color:transparent;}#my-svg .cluster rect{fill:#F5EFE6;stroke:#1a1a1a;stroke-width:1px;}#my-svg .cluster text{fill:#1a1a1a;}#my-svg .cluster span{color:#1a1a1a;}#my-svg .nodeLabel,#my-svg .edgeLabel{color:#1a1a1a;}#my-svg .noteLabel .nodeLabel,#my-svg .noteLabel .edgeLabel{color:#1a1a1a;}#my-svg .edgeLabel .label rect{fill:#FBF7F0;}#my-svg .label text{fill:#1a1a1a;}#my-svg .labelBkg{background:#FBF7F0;}#my-svg .edgeLabel .label span{background:#FBF7F0;}#my-svg .classTitle{font-weight:bolder;}#my-svg .node rect,#my-svg .node circle,#my-svg .node ellipse,#my-svg .node polygon,#my-svg .node path{fill:#FBF7F0;stroke:#1a1a1a;stroke-width:1;}#my-svg .divider{stroke:#1a1a1a;stroke-width:1;}#my-svg g.clickable{cursor:pointer;}#my-svg g.classGroup rect{fill:#FBF7F0;stroke:#1a1a1a;}#my-svg g.classGroup line{stroke:#1a1a1a;stroke-width:1;}#my-svg .classLabel .box{stroke:none;stroke-width:0;fill:#FBF7F0;opacity:0.5;}#my-svg .classLabel .label{fill:#1a1a1a;font-size:10px;}#my-svg .relation{stroke:#1a1a1a;stroke-width:1;fill:none;}#my-svg .dashed-line{stroke-dasharray:3;}#my-svg .dotted-line{stroke-dasharray:1 2;}#my-svg [id$="-compositionStart"],#my-svg .composition{fill:#1a1a1a!important;stroke:#1a1a1a!important;stroke-width:1;}#my-svg [id$="-compositionEnd"],#my-svg .composition{fill:#1a1a1a!important;stroke:#1a1a1a!important;stroke-width:1;}#my-svg [id$="-dependencyStart"],#my-svg .dependency{fill:#1a1a1a!important;stroke:#1a1a1a!important;stroke-width:1;}#my-svg [id$="-dependencyEnd"],#my-svg .dependency{fill:#1a1a1a!important;stroke:#1a1a1a!important;stroke-width:1;}#my-svg [id$="-extensionStart"],#my-svg .extension{fill:transparent!important;stroke:#1a1a1a!important;stroke-width:1;}#my-svg [id$="-extensionEnd"],#my-svg .extension{fill:transparent!important;stroke:#1a1a1a!important;stroke-width:1;}#my-svg [id$="-aggregationStart"],#my-svg .aggregation{fill:transparent!important;stroke:#1a1a1a!important;stroke-width:1;}#my-svg [id$="-aggregationEnd"],#my-svg .aggregation{fill:transparent!important;stroke:#1a1a1a!important;stroke-width:1;}#my-svg [id$="-lollipopStart"],#my-svg .lollipop{fill:#FBF7F0!important;stroke:#1a1a1a!important;stroke-width:1;}#my-svg [id$="-lollipopEnd"],#my-svg .lollipop{fill:#FBF7F0!important;stroke:#1a1a1a!important;stroke-width:1;}#my-svg .edgeTerminals{font-size:11px;line-height:initial;}#my-svg .classTitleText{text-anchor:middle;font-size:18px;fill:#1a1a1a;}#my-svg .edgeLabel[data-look="neo"]{background-color:#FBF7F0;text-align:center;}#my-svg .edgeLabel[data-look="neo"] p{background-color:#FBF7F0;}#my-svg .edgeLabel[data-look="neo"] rect{opacity:0.5;background-color:#FBF7F0;fill:#FBF7F0;}#my-svg .label-icon{display:inline-block;height:1em;overflow:visible;vertical-align:-0.125em;}#my-svg .node .label-icon path{fill:currentColor;stroke:revert;stroke-width:revert;}#my-svg .node .neo-node{stroke:#1a1a1a;}#my-svg [data-look="neo"].node rect,#my-svg [data-look="neo"].cluster rect,#my-svg [data-look="neo"].node polygon{stroke:url(#my-svg-gradient);filter:drop-shadow( 1px 2px 2px rgba(185,185,185,1));}#my-svg [data-look="neo"].node path{stroke:url(#my-svg-gradient);stroke-width:1px;}#my-svg [data-look="neo"].node .outer-path{filter:drop-shadow( 1px 2px 2px rgba(185,185,185,1));}#my-svg [data-look="neo"].node .neo-line path{stroke:#1a1a1a;filter:none;}#my-svg [data-look="neo"].node circle{stroke:url(#my-svg-gradient);filter:drop-shadow( 1px 2px 2px rgba(185,185,185,1));}#my-svg [data-look="neo"].node circle .state-start{fill:#000000;}#my-svg [data-look="neo"].icon-shape .icon{fill:url(#my-svg-gradient);filter:drop-shadow( 1px 2px 2px rgba(185,185,185,1));}#my-svg [data-look="neo"].icon-shape .icon-neo path{stroke:url(#my-svg-gradient);filter:drop-shadow( 1px 2px 2px rgba(185,185,185,1));}#my-svg :root{--mermaid-font-family:"trebuchet ms",verdana,arial,sans-serif;}</style><g><defs><marker id="my-svg_class-aggregationStart" class="marker aggregation class" refX="18" refY="7" markerWidth="190" markerHeight="240" orient="auto"><path d="M 18,7 L9,13 L1,7 L9,1 Z"/></marker></defs><defs><marker id="my-svg_class-aggregationEnd" class="marker aggregation class" refX="1" refY="7" markerWidth="20" markerHeight="28" orient="auto"><path d="M 18,7 L9,13 L1,7 L9,1 Z"/></marker></defs><defs><marker id="my-svg_class-aggregationStart-margin" class="marker aggregation class" refX="15" refY="7" markerWidth="190" markerHeight="240" orient="auto" markerUnits="userSpaceOnUse"><path d="M 18,7 L9,13 L1,7 L9,1 Z" style="stroke-width: 2;"/></marker></defs><defs><marker id="my-svg_class-aggregationEnd-margin" class="marker aggregation class" refX="1" refY="7" markerWidth="20" markerHeight="28" orient="auto" markerUnits="userSpaceOnUse"><path d="M 18,7 L9,13 L1,7 L9,1 Z" style="stroke-width: 2;"/></marker></defs><defs><marker id="my-svg_class-extensionStart" class="marker extension class" refX="18" refY="7" markerWidth="20" markerHeight="28" orient="auto" markerUnits="userSpaceOnUse"><path d="M 1,7 L18,13 V 1 Z"/></marker></defs><defs><marker id="my-svg_class-extensionEnd" class="marker extension class" refX="1" refY="7" markerWidth="20" markerHeight="28" orient="auto"><path d="M 1,1 V 13 L18,7 Z"/></marker></defs><marker id="my-svg_class-extensionStart-margin" class="marker extension class" refX="18" refY="7" markerWidth="20" markerHeight="28" orient="auto" markerUnits="userSpaceOnUse" viewBox="0 0 20 14"><polygon points="10,7 18,13 18,1" style="stroke-width: 2; stroke-dasharray: 0;"/></marker><defs><marker id="my-svg_class-extensionEnd-margin" class="marker extension class" refX="9" refY="7" markerWidth="20" markerHeight="28" orient="auto" markerUnits="userSpaceOnUse" viewBox="0 0 20 14"><polygon points="10,1 10,13 18,7" style="stroke-width: 2; stroke-dasharray: 0;"/></marker></defs><defs><marker id="my-svg_class-compositionStart" class="marker composition class" refX="18" refY="7" markerWidth="190" markerHeight="240" orient="auto"><path d="M 18,7 L9,13 L1,7 L9,1 Z"/></marker></defs><defs><marker id="my-svg_class-compositionEnd" class="marker composition class" refX="1" refY="7" markerWidth="20" markerHeight="28" orient="auto"><path d="M 18,7 L9,13 L1,7 L9,1 Z"/></marker></defs><defs><marker id="my-svg_class-compositionStart-margin" class="marker composition class" refX="15" refY="7" markerWidth="190" markerHeight="240" orient="auto" markerUnits="userSpaceOnUse"><path viewBox="0 0 15 15" d="M 18,7 L9,13 L1,7 L9,1 Z" style="stroke-width: 0;"/></marker></defs><defs><marker id="my-svg_class-compositionEnd-margin" class="marker composition class" refX="3.5" refY="7" markerWidth="20" markerHeight="28" orient="auto" markerUnits="userSpaceOnUse"><path d="M 18,7 L9,13 L1,7 L9,1 Z" style="stroke-width: 0;"/></marker></defs><defs><marker id="my-svg_class-dependencyStart" class="marker dependency class" refX="6" refY="7" markerWidth="190" markerHeight="240" orient="auto"><path d="M 5,7 L9,13 L1,7 L9,1 Z"/></marker></defs><defs><marker id="my-svg_class-dependencyEnd" class="marker dependency class" refX="13" refY="7" markerWidth="20" markerHeight="28" orient="auto"><path d="M 18,7 L9,13 L14,7 L9,1 Z"/></marker></defs><defs><marker id="my-svg_class-dependencyStart-margin" class="marker dependency class" refX="4" refY="7" markerWidth="190" markerHeight="240" orient="auto" markerUnits="userSpaceOnUse"><path d="M 5,7 L9,13 L1,7 L9,1 Z" style="stroke-width: 0;"/></marker></defs><defs><marker id="my-svg_class-dependencyEnd-margin" class="marker dependency class" refX="16" refY="7" markerWidth="20" markerHeight="28" orient="auto" markerUnits="userSpaceOnUse"><path d="M 18,7 L9,13 L14,7 L9,1 Z" style="stroke-width: 0;"/></marker></defs><defs><marker id="my-svg_class-lollipopStart" class="marker lollipop class" refX="13" refY="7" markerWidth="190" markerHeight="240" orient="auto"><circle fill="transparent" cx="7" cy="7" r="6"/></marker></defs><defs><marker id="my-svg_class-lollipopEnd" class="marker lollipop class" refX="1" refY="7" markerWidth="190" markerHeight="240" orient="auto"><circle fill="transparent" cx="7" cy="7" r="6"/></marker></defs><defs><marker id="my-svg_class-lollipopStart-margin" class="marker lollipop class" refX="13" refY="7" markerWidth="190" markerHeight="240" orient="auto" markerUnits="userSpaceOnUse"><circle fill="transparent" cx="7" cy="7" r="6" stroke-width="2"/></marker></defs><defs><marker id="my-svg_class-lollipopEnd-margin" class="marker lollipop class" refX="1" refY="7" markerWidth="190" markerHeight="240" orient="auto" markerUnits="userSpaceOnUse"><circle fill="transparent" cx="7" cy="7" r="6" stroke-width="2"/></marker></defs><g class="root"><g class="clusters"/><g class="edgePaths"><path d="M42.043,145.147L38.627,148.039C35.211,150.931,28.379,156.716,24.963,174.858C21.547,193,21.547,223.5,21.547,255.283C21.547,287.067,21.547,320.133,21.547,353.2C21.547,386.267,21.547,419.333,21.547,452.4C21.547,485.467,21.547,518.533,28.12,541.1C34.692,563.667,47.838,575.733,54.41,581.767L60.983,587.8" id="my-svg-id_Assign_Place_1" class="edge-thickness-normal edge-pattern-solid relation" style=";;;" data-edge="true" data-et="edge" data-id="id_Assign_Place_1" data-points="W3sieCI6NTUuMjA3NTg3NTcwNDQwNTgsInkiOjEzNH0seyJ4IjoyMS41NDY4NzUsInkiOjE2Mi41fSx7IngiOjIxLjU0Njg3NSwieSI6MjU0fSx7IngiOjIxLjU0Njg3NSwieSI6MzUzLjIwMDAwMDc2MjkzOTQ1fSx7IngiOjIxLjU0Njg3NSwieSI6NDUyLjQwMDAwMTUyNTg3ODl9LHsieCI6MjEuNTQ2ODc1LCJ5Ijo1NTEuNjAwMDAyMjg4ODE4NH0seyJ4Ijo2MC45ODMyMDA2MDEwODc2NzQsInkiOjU4Ny44MDAwMDMwNTE3NTc4fV0=" data-look="classic" marker-start="url(#my-svg_class-compositionStart)"/><path d="M217.188,145.147L220.604,148.039C224.02,150.931,230.852,156.716,234.268,164.358C237.684,172,237.684,181.5,237.684,186.25L237.684,191" id="my-svg-id_Assign_Rvalue_2" class="edge-thickness-normal edge-pattern-solid relation" style=";;;" data-edge="true" data-et="edge" data-id="id_Assign_Rvalue_2" data-points="W3sieCI6MjA0LjAyMzM2OTQ2MDgwOTQyLCJ5IjoxMzR9LHsieCI6MjM3LjY4NDA4MjAzMTI1LCJ5IjoxNjIuNX0seyJ4IjoyMzcuNjg0MDgyMDMxMjUsInkiOjE5MX1d" data-look="classic" marker-start="url(#my-svg_class-compositionStart)"/><path d="M237.684,334.25L237.684,337.408C237.684,340.567,237.684,346.883,237.684,356.075C237.684,365.267,237.684,377.333,237.684,383.367L237.684,389.4" id="my-svg-id_Rvalue_Operand_3" class="edge-thickness-normal edge-pattern-solid relation" style=";;;" data-edge="true" data-et="edge" data-id="id_Rvalue_Operand_3" data-points="W3sieCI6MjM3LjY4NDA4MjAzMTI1LCJ5IjozMTd9LHsieCI6MjM3LjY4NDA4MjAzMTI1LCJ5IjozNTMuMjAwMDAwNzYyOTM5NDV9LHsieCI6MjM3LjY4NDA4MjAzMTI1LCJ5IjozODkuNDAwMDAxNTI1ODc4OX1d" data-look="classic" marker-start="url(#my-svg_class-compositionStart)"/><path d="M237.684,515.4L237.684,521.433C237.684,527.467,237.684,539.533,231.848,550.924C226.012,562.314,214.34,573.028,208.504,578.386L202.668,583.743" id="my-svg-id_Operand_Place_4" class="edge-thickness-normal edge-pattern-dashed relation" style=";;;" data-edge="true" data-et="edge" data-id="id_Operand_Place_4" data-points="W3sieCI6MjM3LjY4NDA4MjAzMTI1LCJ5Ijo1MTUuNDAwMDAxNTI1ODc4OX0seyJ4IjoyMzcuNjg0MDgyMDMxMjUsInkiOjU1MS42MDAwMDIyODg4MTg0fSx7IngiOjE5OC4yNDc3NTY0MzAxNjIzMywieSI6NTg3LjgwMDAwMzA1MTc1Nzh9XQ==" data-look="classic" marker-end="url(#my-svg_class-dependencyEnd)"/></g><g class="edgeLabels"><g class="edgeLabel" transform="translate(21.546875, 353.20000076293945)"><g class="label" data-id="id_Assign_Place_1" transform="translate(0, -9.500000953674316)"><g><rect class="background" style="" x="-13.546875" y="-0.9999990463256836" width="27.09375" height="21"/><text y="-10.1" text-anchor="middle" style=""><tspan class="text-outer-tspan row" x="0" y="-0.1em" dy="1.1em" text-anchor="middle"><tspan font-style="normal" class="text-inner-tspan" font-weight="normal">lhs</tspan></tspan></text></g></g></g><g class="edgeLabel" transform="translate(237.68408203125, 162.5)"><g class="label" data-id="id_Assign_Rvalue_2" transform="translate(0, -9.500000953674316)"><g><rect class="background" style="" x="-13.546875" y="-0.9999990463256836" width="27.09375" height="21"/><text y="-10.1" text-anchor="middle" style=""><tspan class="text-outer-tspan row" x="0" y="-0.1em" dy="1.1em" text-anchor="middle"><tspan font-style="normal" class="text-inner-tspan" font-weight="normal">rhs</tspan></tspan></text></g></g></g><g class="edgeLabel" transform="translate(237.68408203125, 353.20000076293945)"><g class="label" data-id="id_Rvalue_Operand_3" transform="translate(-0.1494140625, -17.20000171661377)"><g><rect class="background" style="" x="-82.8359375" y="-0.9999990463256836" width="165.970703125" height="36.400001525878906"/><text y="-10.1" text-anchor="middle" style=""><tspan class="text-outer-tspan row" x="0" y="-0.1em" dy="1.1em" text-anchor="middle"><tspan font-style="normal" class="text-inner-tspan" font-weight="normal">takes</tspan><tspan font-style="normal" class="text-inner-tspan" font-weight="normal"> Operands,</tspan><tspan font-style="normal" class="text-inner-tspan" font-weight="normal"> never</tspan></tspan><tspan class="text-outer-tspan row" x="0" y="1em" dy="1.1em" text-anchor="middle"><tspan font-style="normal" class="text-inner-tspan" font-weight="normal">Rvalues</tspan></tspan></text></g></g></g><g class="edgeLabel" transform="translate(237.68408203125, 551.6000022888184)"><g class="label" data-id="id_Operand_Place_4" transform="translate(0, -17.20000171661377)"><g><rect class="background" style="" x="-79" y="-0.9999990463256836" width="158" height="36.400001525878906"/><text y="-10.1" text-anchor="middle" style=""><tspan class="text-outer-tspan row" x="0" y="-0.1em" dy="1.1em" text-anchor="middle"><tspan font-style="normal" class="text-inner-tspan" font-weight="normal">Copy</tspan><tspan font-style="normal" class="text-inner-tspan" font-weight="normal"> and</tspan><tspan font-style="normal" class="text-inner-tspan" font-weight="normal"> Move</tspan><tspan font-style="normal" class="text-inner-tspan" font-weight="normal"> read</tspan><tspan font-style="normal" class="text-inner-tspan" font-weight="normal"> a</tspan></tspan><tspan class="text-outer-tspan row" x="0" y="1em" dy="1.1em" text-anchor="middle"><tspan font-style="normal" class="text-inner-tspan" font-weight="normal">place</tspan></tspan></text></g></g></g></g><g class="nodes"><g class="node default" id="my-svg-classId-Assign-0" data-look="classic" transform="translate(129.615478515625, 71)"><g class="basic label-container outer-path"><path d="M-89.95556640625 -63 L89.95556640625 -63 L89.95556640625 63 L-89.95556640625 63" stroke="none" stroke-width="0" fill="#FBF7F0" style=""/><path d="M-89.95556640625 -63 C-52.13779962517672 -63, -14.320032844103437 -63, 89.95556640625 -63 M-89.95556640625 -63 C-29.352613387678268 -63, 31.250339630893464 -63, 89.95556640625 -63 M89.95556640625 -63 C89.95556640625 -14.95396543309571, 89.95556640625 33.09206913380858, 89.95556640625 63 M89.95556640625 -63 C89.95556640625 -18.966076824967594, 89.95556640625 25.067846350064812, 89.95556640625 63 M89.95556640625 63 C30.23895255330862 63, -29.477661299632757 63, -89.95556640625 63 M89.95556640625 63 C49.87282432538813 63, 9.79008224452626 63, -89.95556640625 63 M-89.95556640625 63 C-89.95556640625 12.709637928945014, -89.95556640625 -37.58072414210997, -89.95556640625 -63 M-89.95556640625 63 C-89.95556640625 13.855117119897045, -89.95556640625 -35.28976576020591, -89.95556640625 -63" stroke="#1a1a1a" stroke-width="1.3" fill="none" stroke-dasharray="0 0" style=""/></g><g class="annotation-group text" transform="translate(0, -43)"/><g class="label-group text" transform="translate(-23.7431640625, -43)"><g class="label" style="font-weight: bolder" transform="translate(0,-8.5)"><g><rect class="background" style="stroke: none"/><text y="-10.1" style=""><tspan class="text-outer-tspan row" x="0" y="-0.1em" dy="1.1em" font-weight=""><tspan font-style="normal" class="text-inner-tspan" font-weight="">Assign</tspan></tspan></text></g></g></g><g class="members-group text" transform="translate(-77.95556640625, -2)"><g class="label" style="" transform="translate(0,-8.5)"><g><rect class="background" style="stroke: none"/><text y="-10.1" style=""><tspan class="text-outer-tspan row" x="0" y="-0.1em" dy="1.1em"><tspan font-style="normal" class="text-inner-tspan" font-weight="normal">left-hand</tspan><tspan font-style="normal" class="text-inner-tspan" font-weight="normal"> Place</tspan></tspan></text></g></g><g class="label" style="" transform="translate(0,11.5)"><g><rect class="background" style="stroke: none"/><text y="-10.1" style=""><tspan class="text-outer-tspan row" x="0" y="-0.1em" dy="1.1em"><tspan font-style="normal" class="text-inner-tspan" font-weight="normal">right-hand</tspan><tspan font-style="normal" class="text-inner-tspan" font-weight="normal"> Rvalue</tspan></tspan></text></g></g></g><g class="methods-group text" transform="translate(-77.95556640625, 59)"/><g class="divider" style=""><path d="M-89.95556640625 -22 C-33.905055714851166 -21.99968845446185, 22.14545497654767 -21.999376908923697, 89.95556640625 -21.999 M-89.95556640625 -22 C-19.773002726028764 -21.99960990427561, 50.40956095419247 -21.99921980855122, 89.95556640625 -21.999" stroke="#1a1a1a" stroke-width="1.3" fill="none" stroke-dasharray="0 0" style=""/></g><g class="divider" style=""><path d="M-89.95556640625 39 C-49.24111430452609 39.00022630312791, -8.526662202802186 39.00045260625583, 89.95556640625 39.001 M-89.95556640625 39 C-25.08517346701322 39.00036056908722, 39.78521947222356 39.00072113817444, 89.95556640625 39.001" stroke="#1a1a1a" stroke-width="1.3" fill="none" stroke-dasharray="0 0" style=""/></g></g><g class="node default" id="my-svg-classId-Place-1" data-look="classic" transform="translate(129.615478515625, 650.8000030517578)"><g class="basic label-container outer-path"><path d="M-106.376953125 -63 L106.376953125 -63 L106.376953125 63 L-106.376953125 63" stroke="none" stroke-width="0" fill="#FBF7F0" style=""/><path d="M-106.376953125 -63 C-45.941097337195224 -63, 14.494758450609552 -63, 106.376953125 -63 M-106.376953125 -63 C-45.14457405066409 -63, 16.08780502367182 -63, 106.376953125 -63 M106.376953125 -63 C106.376953125 -28.911334994701917, 106.376953125 5.177330010596165, 106.376953125 63 M106.376953125 -63 C106.376953125 -22.15927088548751, 106.376953125 18.681458229024983, 106.376953125 63 M106.376953125 63 C25.66199637557375 63, -55.0529603738525 63, -106.376953125 63 M106.376953125 63 C47.58249337251616 63, -11.211966379967677 63, -106.376953125 63 M-106.376953125 63 C-106.376953125 35.354635239885496, -106.376953125 7.709270479770993, -106.376953125 -63 M-106.376953125 63 C-106.376953125 35.14816495418294, -106.376953125 7.296329908365877, -106.376953125 -63" stroke="#1a1a1a" stroke-width="1.3" fill="none" stroke-dasharray="0 0" style=""/></g><g class="annotation-group text" transform="translate(0, -43)"/><g class="label-group text" transform="translate(-19.39453125, -43)"><g class="label" style="font-weight: bolder" transform="translate(0,-8.5)"><g><rect class="background" style="stroke: none"/><text y="-10.1" style=""><tspan class="text-outer-tspan row" x="0" y="-0.1em" dy="1.1em" font-weight=""><tspan font-style="normal" class="text-inner-tspan" font-weight="">Place</tspan></tspan></text></g></g></g><g class="members-group text" transform="translate(-94.376953125, -2)"><g class="label" style="" transform="translate(0,-8.5)"><g><rect class="background" style="stroke: none"/><text y="-10.1" style=""><tspan class="text-outer-tspan row" x="0" y="-0.1em" dy="1.1em"><tspan font-style="normal" class="text-inner-tspan" font-weight="normal">a</tspan><tspan font-style="normal" class="text-inner-tspan" font-weight="normal"> memory</tspan><tspan font-style="normal" class="text-inner-tspan" font-weight="normal"> location</tspan></tspan></text></g></g><g class="label" style="" transform="translate(0,11.5)"><g><rect class="background" style="stroke: none"/><text y="-10.1" style=""><tspan class="text-outer-tspan row" x="0" y="-0.1em" dy="1.1em"><tspan font-style="normal" class="text-inner-tspan" font-weight="normal">locals,</tspan><tspan font-style="normal" class="text-inner-tspan" font-weight="normal"> fields,</tspan><tspan font-style="normal" class="text-inner-tspan" font-weight="normal"> derefs</tspan></tspan></text></g></g></g><g class="methods-group text" transform="translate(-94.376953125, 59)"/><g class="divider" style=""><path d="M-106.376953125 -22 C-58.32599297143867 -21.99977414769486, -10.275032817877346 -21.999548295389726, 106.376953125 -21.999 M-106.376953125 -22 C-22.505793462993665 -21.999605783220904, 61.36536619901267 -21.999211566441808, 106.376953125 -21.999" stroke="#1a1a1a" stroke-width="1.3" fill="none" stroke-dasharray="0 0" style=""/></g><g class="divider" style=""><path d="M-106.376953125 39 C-32.305812391662656 39.00034815408111, 41.76532834167469 39.00069630816222, 106.376953125 39.001 M-106.376953125 39 C-31.394565283094437 39.00035243718512, 43.587822558811126 39.000704874370236, 106.376953125 39.001" stroke="#1a1a1a" stroke-width="1.3" fill="none" stroke-dasharray="0 0" style=""/></g></g><g class="node default" id="my-svg-classId-Rvalue-2" data-look="classic" transform="translate(237.68408203125, 254)"><g class="basic label-container outer-path"><path d="M-189.13720703125 -63 L189.13720703125 -63 L189.13720703125 63 L-189.13720703125 63" stroke="none" stroke-width="0" fill="#FBF7F0" style=""/><path d="M-189.13720703125 -63 C-53.592757529515666 -63, 81.95169197221867 -63, 189.13720703125 -63 M-189.13720703125 -63 C-41.564770374103006 -63, 106.00766628304399 -63, 189.13720703125 -63 M189.13720703125 -63 C189.13720703125 -24.322753196937796, 189.13720703125 14.354493606124407, 189.13720703125 63 M189.13720703125 -63 C189.13720703125 -32.52273395033306, 189.13720703125 -2.045467900666125, 189.13720703125 63 M189.13720703125 63 C63.2405219761073 63, -62.656163079035395 63, -189.13720703125 63 M189.13720703125 63 C50.5584704193661 63, -88.0202661925178 63, -189.13720703125 63 M-189.13720703125 63 C-189.13720703125 37.191897182945496, -189.13720703125 11.383794365891, -189.13720703125 -63 M-189.13720703125 63 C-189.13720703125 20.073521281077156, -189.13720703125 -22.85295743784569, -189.13720703125 -63" stroke="#1a1a1a" stroke-width="1.3" fill="none" stroke-dasharray="0 0" style=""/></g><g class="annotation-group text" transform="translate(0, -43)"/><g class="label-group text" transform="translate(-23.2431640625, -43)"><g class="label" style="font-weight: bolder" transform="translate(0,-8.5)"><g><rect class="background" style="stroke: none"/><text y="-10.1" style=""><tspan class="text-outer-tspan row" x="0" y="-0.1em" dy="1.1em" font-weight=""><tspan font-style="normal" class="text-inner-tspan" font-weight="">Rvalue</tspan></tspan></text></g></g></g><g class="members-group text" transform="translate(-177.13720703125, -2)"><g class="label" style="" transform="translate(0,-8.5)"><g><rect class="background" style="stroke: none"/><text y="-10.1" style=""><tspan class="text-outer-tspan row" x="0" y="-0.1em" dy="1.1em"><tspan font-style="normal" class="text-inner-tspan" font-weight="normal">a</tspan><tspan font-style="normal" class="text-inner-tspan" font-weight="normal"> computation</tspan></tspan></text></g></g><g class="label" style="" transform="translate(0,11.5)"><g><rect class="background" style="stroke: none"/><text y="-10.1" style=""><tspan class="text-outer-tspan row" x="0" y="-0.1em" dy="1.1em"><tspan font-style="normal" class="text-inner-tspan" font-weight="normal">Use,</tspan><tspan font-style="normal" class="text-inner-tspan" font-weight="normal"> BinaryOp,</tspan><tspan font-style="normal" class="text-inner-tspan" font-weight="normal"> Ref,</tspan><tspan font-style="normal" class="text-inner-tspan" font-weight="normal"> Aggregate,</tspan><tspan font-style="normal" class="text-inner-tspan" font-weight="normal"> Discriminant</tspan></tspan></text></g></g></g><g class="methods-group text" transform="translate(-177.13720703125, 59)"/><g class="divider" style=""><path d="M-189.13720703125 -22 C-108.04025184376438 -21.999785613427257, -26.94329665627876 -21.999571226854513, 189.13720703125 -21.999 M-189.13720703125 -22 C-107.49218952765814 -21.99978416457876, -25.847172024066282 -21.99956832915752, 189.13720703125 -21.999" stroke="#1a1a1a" stroke-width="1.3" fill="none" stroke-dasharray="0 0" style=""/></g><g class="divider" style=""><path d="M-189.13720703125 39 C-72.64513240250605 39.00030795652653, 43.8469422262379 39.00061591305305, 189.13720703125 39.001 M-189.13720703125 39 C-58.45181467525896 39.000345477747096, 72.23357768073208 39.0006909554942, 189.13720703125 39.001" stroke="#1a1a1a" stroke-width="1.3" fill="none" stroke-dasharray="0 0" style=""/></g></g><g class="node default" id="my-svg-classId-Operand-3" data-look="classic" transform="translate(237.68408203125, 452.4000015258789)"><g class="basic label-container outer-path"><path d="M-103.2802734375 -63 L103.2802734375 -63 L103.2802734375 63 L-103.2802734375 63" stroke="none" stroke-width="0" fill="#FBF7F0" style=""/><path d="M-103.2802734375 -63 C-42.610811328168936 -63, 18.05865078116213 -63, 103.2802734375 -63 M-103.2802734375 -63 C-28.961603379335344 -63, 45.35706667882931 -63, 103.2802734375 -63 M103.2802734375 -63 C103.2802734375 -35.868420584533766, 103.2802734375 -8.736841169067532, 103.2802734375 63 M103.2802734375 -63 C103.2802734375 -29.651250038972904, 103.2802734375 3.6974999220541918, 103.2802734375 63 M103.2802734375 63 C61.61880301702594 63, 19.95733259655188 63, -103.2802734375 63 M103.2802734375 63 C51.92982266946635 63, 0.5793719014326939 63, -103.2802734375 63 M-103.2802734375 63 C-103.2802734375 18.484428754708127, -103.2802734375 -26.031142490583747, -103.2802734375 -63 M-103.2802734375 63 C-103.2802734375 16.39193711885759, -103.2802734375 -30.21612576228482, -103.2802734375 -63" stroke="#1a1a1a" stroke-width="1.3" fill="none" stroke-dasharray="0 0" style=""/></g><g class="annotation-group text" transform="translate(0, -43)"/><g class="label-group text" transform="translate(-27.591796875, -43)"><g class="label" style="font-weight: bolder" transform="translate(0,-8.5)"><g><rect class="background" style="stroke: none"/><text y="-10.1" style=""><tspan class="text-outer-tspan row" x="0" y="-0.1em" dy="1.1em" font-weight=""><tspan font-style="normal" class="text-inner-tspan" font-weight="">Operand</tspan></tspan></text></g></g></g><g class="members-group text" transform="translate(-91.2802734375, -2)"><g class="label" style="" transform="translate(0,-8.5)"><g><rect class="background" style="stroke: none"/><text y="-10.1" style=""><tspan class="text-outer-tspan row" x="0" y="-0.1em" dy="1.1em"><tspan font-style="normal" class="text-inner-tspan" font-weight="normal">an</tspan><tspan font-style="normal" class="text-inner-tspan" font-weight="normal"> input</tspan><tspan font-style="normal" class="text-inner-tspan" font-weight="normal"> value</tspan></tspan></text></g></g><g class="label" style="" transform="translate(0,11.5)"><g><rect class="background" style="stroke: none"/><text y="-10.1" style=""><tspan class="text-outer-tspan row" x="0" y="-0.1em" dy="1.1em"><tspan font-style="normal" class="text-inner-tspan" font-weight="normal">Copy,</tspan><tspan font-style="normal" class="text-inner-tspan" font-weight="normal"> Move,</tspan><tspan font-style="normal" class="text-inner-tspan" font-weight="normal"> Constant</tspan></tspan></text></g></g></g><g class="methods-group text" transform="translate(-91.2802734375, 59)"/><g class="divider" style=""><path d="M-103.2802734375 -22 C-58.053444892137684 -21.99978104807898, -12.826616346775367 -21.99956209615796, 103.2802734375 -21.999 M-103.2802734375 -22 C-31.532053059623266 -21.999652652834904, 40.21616731825347 -21.999305305669804, 103.2802734375 -21.999" stroke="#1a1a1a" stroke-width="1.3" fill="none" stroke-dasharray="0 0" style=""/></g><g class="divider" style=""><path d="M-103.2802734375 39 C-60.17301169871473 39.00020869068363, -17.065749959929462 39.000417381367264, 103.2802734375 39.001 M-103.2802734375 39 C-23.810550150829883 39.00038472847061, 55.659173135840234 39.00076945694121, 103.2802734375 39.001" stroke="#1a1a1a" stroke-width="1.3" fill="none" stroke-dasharray="0 0" style=""/></g></g></g></g></g><defs><filter id="my-svg-drop-shadow" height="130%" width="130%"><feDropShadow dx="4" dy="4" stdDeviation="0" flood-opacity="0.06" flood-color="#000000"/></filter></defs><defs><filter id="my-svg-drop-shadow-small" height="150%" width="150%"><feDropShadow dx="2" dy="2" stdDeviation="0" flood-opacity="0.06" flood-color="#000000"/></filter></defs><linearGradient id="my-svg-gradient" gradientUnits="objectBoundingBox" x1="0%" y1="0%" x2="100%" y2="0%"><stop offset="0%" stop-color="#1a1a1a" stop-opacity="1"/><stop offset="100%" stop-color="hsl(36, 2.8571428571%, 83.137254902%)" stop-opacity="1"/></linearGradient></svg>