<svg id="my-svg" width="662.30859375" xmlns="http://www.w3.org/2000/svg" xmlns:xlink="http://www.w3.org/1999/xlink" class="classDiagram" height="534.4000244140625" viewBox="0 0 662.30859375 534.4000244140625" role="graphics-document document" aria-roledescription="class" aria-describedby="chart-desc-my-svg" aria-labelledby="chart-title-my-svg" style="background-color: transparent;"><title id="chart-title-my-svg">Instance and InstanceKind taxonomy</title><desc id="chart-desc-my-svg">An Instance pairs an InstanceKind with concrete GenericArgs, where InstanceKind ranges over ordinary Items with their own MIR, MIR-less Intrinsic/Virtual kinds, and compiler-synthesized shims like DropGlue and ClosureOnceShim.</desc><style>#my-svg{font-family:'JetBrains Mono','SF Mono','Berkeley Mono','Consolas','DejaVu Sans Mono',monospace;font-size:14px;fill:#1a1a1a;}@keyframes edge-animation-frame{from{stroke-dashoffset:0;}}@keyframes dash{to{stroke-dashoffset:0;}}#my-svg .edge-animation-slow{stroke-dasharray:9,5!important;stroke-dashoffset:900;animation:dash 50s linear infinite;stroke-linecap:round;}#my-svg .edge-animation-fast{stroke-dasharray:9,5!important;stroke-dashoffset:900;animation:dash 20s linear infinite;stroke-linecap:round;}#my-svg .error-icon{fill:#FBF7F0;}#my-svg .error-text{fill:#04080f;stroke:#04080f;}#my-svg .edge-thickness-normal{stroke-width:1px;}#my-svg .edge-thickness-thick{stroke-width:3.5px;}#my-svg .edge-pattern-solid{stroke-dasharray:0;}#my-svg .edge-thickness-invisible{stroke-width:0;fill:none;}#my-svg .edge-pattern-dashed{stroke-dasharray:3;}#my-svg .edge-pattern-dotted{stroke-dasharray:2;}#my-svg .marker{fill:#1a1a1a;stroke:#1a1a1a;}#my-svg .marker.cross{stroke:#1a1a1a;}#my-svg svg{font-family:'JetBrains Mono','SF Mono','Berkeley Mono','Consolas','DejaVu Sans Mono',monospace;font-size:14px;}#my-svg p{margin:0;}#my-svg g.classGroup text{fill:#1a1a1a;stroke:none;font-family:'JetBrains Mono','SF Mono','Berkeley Mono','Consolas','DejaVu Sans Mono',monospace;font-size:10px;}#my-svg g.classGroup text .title{font-weight:bolder;}#my-svg .cluster-label text{fill:#1a1a1a;}#my-svg .cluster-label span{color:#1a1a1a;}#my-svg .cluster-label span p{background-color:transparent;}#my-svg .cluster rect{fill:#F5EFE6;stroke:#1a1a1a;stroke-width:1px;}#my-svg .cluster text{fill:#1a1a1a;}#my-svg .cluster span{color:#1a1a1a;}#my-svg .nodeLabel,#my-svg .edgeLabel{color:#1a1a1a;}#my-svg .noteLabel .nodeLabel,#my-svg .noteLabel .edgeLabel{color:#1a1a1a;}#my-svg .edgeLabel .label rect{fill:#FBF7F0;}#my-svg .label text{fill:#1a1a1a;}#my-svg .labelBkg{background:#FBF7F0;}#my-svg .edgeLabel .label span{background:#FBF7F0;}#my-svg .classTitle{font-weight:bolder;}#my-svg .node rect,#my-svg .node circle,#my-svg .node ellipse,#my-svg .node polygon,#my-svg .node path{fill:#FBF7F0;stroke:#1a1a1a;stroke-width:1;}#my-svg .divider{stroke:#1a1a1a;stroke-width:1;}#my-svg g.clickable{cursor:pointer;}#my-svg g.classGroup rect{fill:#FBF7F0;stroke:#1a1a1a;}#my-svg g.classGroup line{stroke:#1a1a1a;stroke-width:1;}#my-svg .classLabel .box{stroke:none;stroke-width:0;fill:#FBF7F0;opacity:0.5;}#my-svg .classLabel .label{fill:#1a1a1a;font-size:10px;}#my-svg .relation{stroke:#1a1a1a;stroke-width:1;fill:none;}#my-svg .dashed-line{stroke-dasharray:3;}#my-svg .dotted-line{stroke-dasharray:1 2;}#my-svg [id$="-compositionStart"],#my-svg .composition{fill:#1a1a1a!important;stroke:#1a1a1a!important;stroke-width:1;}#my-svg [id$="-compositionEnd"],#my-svg .composition{fill:#1a1a1a!important;stroke:#1a1a1a!important;stroke-width:1;}#my-svg [id$="-dependencyStart"],#my-svg .dependency{fill:#1a1a1a!important;stroke:#1a1a1a!important;stroke-width:1;}#my-svg [id$="-dependencyEnd"],#my-svg .dependency{fill:#1a1a1a!important;stroke:#1a1a1a!important;stroke-width:1;}#my-svg [id$="-extensionStart"],#my-svg .extension{fill:transparent!important;stroke:#1a1a1a!important;stroke-width:1;}#my-svg [id$="-extensionEnd"],#my-svg .extension{fill:transparent!important;stroke:#1a1a1a!important;stroke-width:1;}#my-svg [id$="-aggregationStart"],#my-svg .aggregation{fill:transparent!important;stroke:#1a1a1a!important;stroke-width:1;}#my-svg [id$="-aggregationEnd"],#my-svg .aggregation{fill:transparent!important;stroke:#1a1a1a!important;stroke-width:1;}#my-svg [id$="-lollipopStart"],#my-svg .lollipop{fill:#FBF7F0!important;stroke:#1a1a1a!important;stroke-width:1;}#my-svg [id$="-lollipopEnd"],#my-svg .lollipop{fill:#FBF7F0!important;stroke:#1a1a1a!important;stroke-width:1;}#my-svg .edgeTerminals{font-size:11px;line-height:initial;}#my-svg .classTitleText{text-anchor:middle;font-size:18px;fill:#1a1a1a;}#my-svg .edgeLabel[data-look="neo"]{background-color:#FBF7F0;text-align:center;}#my-svg .edgeLabel[data-look="neo"] p{background-color:#FBF7F0;}#my-svg .edgeLabel[data-look="neo"] rect{opacity:0.5;background-color:#FBF7F0;fill:#FBF7F0;}#my-svg .label-icon{display:inline-block;height:1em;overflow:visible;vertical-align:-0.125em;}#my-svg .node .label-icon path{fill:currentColor;stroke:revert;stroke-width:revert;}#my-svg .node .neo-node{stroke:#1a1a1a;}#my-svg [data-look="neo"].node rect,#my-svg [data-look="neo"].cluster rect,#my-svg [data-look="neo"].node polygon{stroke:url(#my-svg-gradient);filter:drop-shadow( 1px 2px 2px rgba(185,185,185,1));}#my-svg [data-look="neo"].node path{stroke:url(#my-svg-gradient);stroke-width:1px;}#my-svg [data-look="neo"].node .outer-path{filter:drop-shadow( 1px 2px 2px rgba(185,185,185,1));}#my-svg [data-look="neo"].node .neo-line path{stroke:#1a1a1a;filter:none;}#my-svg [data-look="neo"].node circle{stroke:url(#my-svg-gradient);filter:drop-shadow( 1px 2px 2px rgba(185,185,185,1));}#my-svg [data-look="neo"].node circle .state-start{fill:#000000;}#my-svg [data-look="neo"].icon-shape .icon{fill:url(#my-svg-gradient);filter:drop-shadow( 1px 2px 2px rgba(185,185,185,1));}#my-svg [data-look="neo"].icon-shape .icon-neo path{stroke:url(#my-svg-gradient);filter:drop-shadow( 1px 2px 2px rgba(185,185,185,1));}#my-svg :root{--mermaid-font-family:"trebuchet ms",verdana,arial,sans-serif;}</style><g><defs><marker id="my-svg_class-aggregationStart" class="marker aggregation class" refX="18" refY="7" markerWidth="190" markerHeight="240" orient="auto"><path d="M 18,7 L9,13 L1,7 L9,1 Z"/></marker></defs><defs><marker id="my-svg_class-aggregationEnd" class="marker aggregation class" refX="1" refY="7" markerWidth="20" markerHeight="28" orient="auto"><path d="M 18,7 L9,13 L1,7 L9,1 Z"/></marker></defs><defs><marker id="my-svg_class-aggregationStart-margin" class="marker aggregation class" refX="15" refY="7" markerWidth="190" markerHeight="240" orient="auto" markerUnits="userSpaceOnUse"><path d="M 18,7 L9,13 L1,7 L9,1 Z" style="stroke-width: 2;"/></marker></defs><defs><marker id="my-svg_class-aggregationEnd-margin" class="marker aggregation class" refX="1" refY="7" markerWidth="20" markerHeight="28" orient="auto" markerUnits="userSpaceOnUse"><path d="M 18,7 L9,13 L1,7 L9,1 Z" style="stroke-width: 2;"/></marker></defs><defs><marker id="my-svg_class-extensionStart" class="marker extension class" refX="18" refY="7" markerWidth="20" markerHeight="28" orient="auto" markerUnits="userSpaceOnUse"><path d="M 1,7 L18,13 V 1 Z"/></marker></defs><defs><marker id="my-svg_class-extensionEnd" class="marker extension class" refX="1" refY="7" markerWidth="20" markerHeight="28" orient="auto"><path d="M 1,1 V 13 L18,7 Z"/></marker></defs><marker id="my-svg_class-extensionStart-margin" class="marker extension class" refX="18" refY="7" markerWidth="20" markerHeight="28" orient="auto" markerUnits="userSpaceOnUse" viewBox="0 0 20 14"><polygon points="10,7 18,13 18,1" style="stroke-width: 2; stroke-dasharray: 0;"/></marker><defs><marker id="my-svg_class-extensionEnd-margin" class="marker extension class" refX="9" refY="7" markerWidth="20" markerHeight="28" orient="auto" markerUnits="userSpaceOnUse" viewBox="0 0 20 14"><polygon points="10,1 10,13 18,7" style="stroke-width: 2; stroke-dasharray: 0;"/></marker></defs><defs><marker id="my-svg_class-compositionStart" class="marker composition class" refX="18" refY="7" markerWidth="190" markerHeight="240" orient="auto"><path d="M 18,7 L9,13 L1,7 L9,1 Z"/></marker></defs><defs><marker id="my-svg_class-compositionEnd" class="marker composition class" refX="1" refY="7" markerWidth="20" markerHeight="28" orient="auto"><path d="M 18,7 L9,13 L1,7 L9,1 Z"/></marker></defs><defs><marker id="my-svg_class-compositionStart-margin" class="marker composition class" refX="15" refY="7" markerWidth="190" markerHeight="240" orient="auto" markerUnits="userSpaceOnUse"><path viewBox="0 0 15 15" d="M 18,7 L9,13 L1,7 L9,1 Z" style="stroke-width: 0;"/></marker></defs><defs><marker id="my-svg_class-compositionEnd-margin" class="marker composition class" refX="3.5" refY="7" markerWidth="20" markerHeight="28" orient="auto" markerUnits="userSpaceOnUse"><path d="M 18,7 L9,13 L1,7 L9,1 Z" style="stroke-width: 0;"/></marker></defs><defs><marker id="my-svg_class-dependencyStart" class="marker dependency class" refX="6" refY="7" markerWidth="190" markerHeight="240" orient="auto"><path d="M 5,7 L9,13 L1,7 L9,1 Z"/></marker></defs><defs><marker id="my-svg_class-dependencyEnd" class="marker dependency class" refX="13" refY="7" markerWidth="20" markerHeight="28" orient="auto"><path d="M 18,7 L9,13 L14,7 L9,1 Z"/></marker></defs><defs><marker id="my-svg_class-dependencyStart-margin" class="marker dependency class" refX="4" refY="7" markerWidth="190" markerHeight="240" orient="auto" markerUnits="userSpaceOnUse"><path d="M 5,7 L9,13 L1,7 L9,1 Z" style="stroke-width: 0;"/></marker></defs><defs><marker id="my-svg_class-dependencyEnd-margin" class="marker dependency class" refX="16" refY="7" markerWidth="20" markerHeight="28" orient="auto" markerUnits="userSpaceOnUse"><path d="M 18,7 L9,13 L14,7 L9,1 Z" style="stroke-width: 0;"/></marker></defs><defs><marker id="my-svg_class-lollipopStart" class="marker lollipop class" refX="13" refY="7" markerWidth="190" markerHeight="240" orient="auto"><circle fill="transparent" cx="7" cy="7" r="6"/></marker></defs><defs><marker id="my-svg_class-lollipopEnd" class="marker lollipop class" refX="1" refY="7" markerWidth="190" markerHeight="240" orient="auto"><circle fill="transparent" cx="7" cy="7" r="6"/></marker></defs><defs><marker id="my-svg_class-lollipopStart-margin" class="marker lollipop class" refX="13" refY="7" markerWidth="190" markerHeight="240" orient="auto" markerUnits="userSpaceOnUse"><circle fill="transparent" cx="7" cy="7" r="6" stroke-width="2"/></marker></defs><defs><marker id="my-svg_class-lollipopEnd-margin" class="marker lollipop class" refX="1" refY="7" markerWidth="190" markerHeight="240" orient="auto" markerUnits="userSpaceOnUse"><circle fill="transparent" cx="7" cy="7" r="6" stroke-width="2"/></marker></defs><g class="root"><g class="clusters"/><g class="edgePaths"><path d="M283.045,151.25L283.045,153.125C283.045,155,283.045,158.75,283.045,165.375C283.045,172,283.045,181.5,283.045,186.25L283.045,191" id="my-svg-id_Instance_InstanceKind_1" class="edge-thickness-normal edge-pattern-solid relation" style=";;;" data-edge="true" data-et="edge" data-id="id_Instance_InstanceKind_1" data-points="W3sieCI6MjgzLjA0NDkyMTg3NSwieSI6MTM0fSx7IngiOjI4My4wNDQ5MjE4NzUsInkiOjE2Mi41fSx7IngiOjI4My4wNDQ5MjE4NzUsInkiOjE5MX1d" data-look="classic" marker-start="url(#my-svg_class-compositionStart)"/><path d="M208.3,253.718L182.332,262.131C156.364,270.545,104.427,287.373,78.459,310.903C52.491,334.433,52.491,364.667,52.491,379.783L52.491,394.9" id="my-svg-id_InstanceKind_Item_2" class="edge-thickness-normal edge-pattern-solid relation" style=";;;" data-edge="true" data-et="edge" data-id="id_InstanceKind_Item_2" data-points="W3sieCI6MjI0LjcwOTk2MDkzNzUsInkiOjI0OC40MDA2Nzg3NTY0NTA3Nn0seyJ4Ijo1Mi40OTEyMTA5Mzc1LCJ5IjozMDQuMjAwMDAwNzYyOTM5NDV9LHsieCI6NTIuNDkxMjEwOTM3NSwieSI6Mzk0LjkwMDAwMTUyNTg3ODl9XQ==" data-look="classic" marker-start="url(#my-svg_class-extensionStart)"/><path d="M225.077,279.232L220.227,283.393C215.376,287.555,205.675,295.877,200.825,315.155C195.975,334.433,195.975,364.667,195.975,379.783L195.975,394.9" id="my-svg-id_InstanceKind_Intrinsic_3" class="edge-thickness-normal edge-pattern-solid relation" style=";;;" data-edge="true" data-et="edge" data-id="id_InstanceKind_Intrinsic_3" data-points="W3sieCI6MjM4LjE2OTMyNjE5ODc5MzMzLCJ5IjoyNjh9LHsieCI6MTk1Ljk3NDYwOTM3NSwieSI6MzA0LjIwMDAwMDc2MjkzOTQ1fSx7IngiOjE5NS45NzQ2MDkzNzUsInkiOjM5NC45MDAwMDE1MjU4Nzg5fV0=" data-look="classic" marker-start="url(#my-svg_class-extensionStart)"/><path d="M341.013,279.232L345.863,283.393C350.713,287.555,360.414,295.877,365.265,315.155C370.115,334.433,370.115,364.667,370.115,379.783L370.115,394.9" id="my-svg-id_InstanceKind_Virtual_4" class="edge-thickness-normal edge-pattern-solid relation" style=";;;" data-edge="true" data-et="edge" data-id="id_InstanceKind_Virtual_4" data-points="W3sieCI6MzI3LjkyMDUxNzU1MTIwNjcsInkiOjI2OH0seyJ4IjozNzAuMTE1MjM0Mzc1LCJ5IjozMDQuMjAwMDAwNzYyOTM5NDV9LHsieCI6MzcwLjExNTIzNDM3NSwieSI6Mzk0LjkwMDAwMTUyNTg3ODl9XQ==" data-look="classic" marker-start="url(#my-svg_class-extensionStart)"/><path d="M358.034,249.742L391.659,258.818C425.285,267.894,492.535,286.047,526.161,301.157C559.786,316.267,559.786,328.333,559.786,334.367L559.786,340.4" id="my-svg-id_InstanceKind_Shim_5" class="edge-thickness-normal edge-pattern-solid relation" style=";;;" data-edge="true" data-et="edge" data-id="id_InstanceKind_Shim_5" data-points="W3sieCI6MzQxLjM3OTg4MjgxMjUsInkiOjI0NS4yNDYxOTcwMDM5NjM1fSx7IngiOjU1OS43ODYxMzI4MTI1LCJ5IjozMDQuMjAwMDAwNzYyOTM5NDV9LHsieCI6NTU5Ljc4NjEzMjgxMjUsInkiOjM0MC40MDAwMDE1MjU4Nzg5fV0=" data-look="classic" marker-start="url(#my-svg_class-extensionStart)"/></g><g class="edgeLabels"><g class="edgeLabel" transform="translate(283.044921875, 162.5)"><g class="label" data-id="id_Instance_InstanceKind_1" transform="translate(0, -9.500000953674316)"><g><rect class="background" style="" x="-32.7890625" y="-0.9999990463256836" width="65.578125" height="21"/><text y="-10.1" text-anchor="middle" style=""><tspan class="text-outer-tspan row" x="0" y="-0.1em" dy="1.1em" text-anchor="middle"><tspan font-style="normal" class="text-inner-tspan" font-weight="normal">contains</tspan></tspan></text></g></g></g><g class="edgeLabel" transform="translate(52.4912109375, 304.20000076293945)"><g class="label" data-id="id_InstanceKind_Item_2" transform="translate(-0.1474609375, -9.500000953674316)"><g><rect class="background" style="" x="-44.34375" y="-0.9999990463256836" width="88.982421875" height="21"/><text y="-10.1" text-anchor="middle" style=""><tspan class="text-outer-tspan row" x="0" y="-0.1em" dy="1.1em" text-anchor="middle"><tspan font-style="normal" class="text-inner-tspan" font-weight="normal">has</tspan><tspan font-style="normal" class="text-inner-tspan" font-weight="normal"> own</tspan><tspan font-style="normal" class="text-inner-tspan" font-weight="normal"> MIR</tspan></tspan></text></g></g></g><g class="edgeLabel" transform="translate(195.974609375, 304.20000076293945)"><g class="label" data-id="id_InstanceKind_Intrinsic_3" transform="translate(0, -17.20000171661377)"><g><rect class="background" style="" x="-78.9921875" y="-0.9999990463256836" width="157.984375" height="36.400001525878906"/><text y="-10.1" text-anchor="middle" style=""><tspan class="text-outer-tspan row" x="0" y="-0.1em" dy="1.1em" text-anchor="middle"><tspan font-style="normal" class="text-inner-tspan" font-weight="normal">no</tspan><tspan font-style="normal" class="text-inner-tspan" font-weight="normal"> own</tspan><tspan font-style="normal" class="text-inner-tspan" font-weight="normal"> MIR,</tspan><tspan font-style="normal" class="text-inner-tspan" font-weight="normal"> magic</tspan><tspan font-style="normal" class="text-inner-tspan" font-weight="normal"> in</tspan></tspan><tspan class="text-outer-tspan row" x="0" y="1em" dy="1.1em" text-anchor="middle"><tspan font-style="normal" class="text-inner-tspan" font-weight="normal">caller</tspan></tspan></text></g></g></g><g class="edgeLabel" transform="translate(370.115234375, 304.20000076293945)"><g class="label" data-id="id_InstanceKind_Virtual_4" transform="translate(0, -17.20000171661377)"><g><rect class="background" style="" x="-75.1484375" y="-0.9999990463256836" width="150.296875" height="36.400001525878906"/><text y="-10.1" text-anchor="middle" style=""><tspan class="text-outer-tspan row" x="0" y="-0.1em" dy="1.1em" text-anchor="middle"><tspan font-style="normal" class="text-inner-tspan" font-weight="normal">no</tspan><tspan font-style="normal" class="text-inner-tspan" font-weight="normal"> own</tspan><tspan font-style="normal" class="text-inner-tspan" font-weight="normal"> MIR,</tspan><tspan font-style="normal" class="text-inner-tspan" font-weight="normal"> dyn</tspan><tspan font-style="normal" class="text-inner-tspan" font-weight="normal"> via</tspan></tspan><tspan class="text-outer-tspan row" x="0" y="1em" dy="1.1em" text-anchor="middle"><tspan font-style="normal" class="text-inner-tspan" font-weight="normal">vtable</tspan></tspan></text></g></g></g><g class="edgeLabel" transform="translate(559.7861328125, 304.20000076293945)"><g class="label" data-id="id_InstanceKind_Shim_5" transform="translate(-0.1474609375, -9.500000953674316)"><g><rect class="background" style="" x="-94.375" y="-0.9999990463256836" width="189.044921875" height="21"/><text y="-10.1" text-anchor="middle" style=""><tspan class="text-outer-tspan row" x="0" y="-0.1em" dy="1.1em" text-anchor="middle"><tspan font-style="normal" class="text-inner-tspan" font-weight="normal">compiler-synthesized</tspan><tspan font-style="normal" class="text-inner-tspan" font-weight="normal"> MIR</tspan></tspan></text></g></g></g></g><g class="nodes"><g class="node default" id="my-svg-classId-Instance-0" data-look="classic" transform="translate(283.044921875, 71)"><g class="basic label-container outer-path"><path d="M-92.90771484375 -63 L92.90771484375 -63 L92.90771484375 63 L-92.90771484375 63" stroke="none" stroke-width="0" fill="#FBF7F0" style=""/><path d="M-92.90771484375 -63 C-28.807286325202114 -63, 35.29314219334577 -63, 92.90771484375 -63 M-92.90771484375 -63 C-42.6142429792942 -63, 7.679228885161606 -63, 92.90771484375 -63 M92.90771484375 -63 C92.90771484375 -13.043128035659365, 92.90771484375 36.91374392868127, 92.90771484375 63 M92.90771484375 -63 C92.90771484375 -19.399248729783785, 92.90771484375 24.20150254043243, 92.90771484375 63 M92.90771484375 63 C50.23871976846734 63, 7.569724693184682 63, -92.90771484375 63 M92.90771484375 63 C22.796635126404638 63, -47.314444590940724 63, -92.90771484375 63 M-92.90771484375 63 C-92.90771484375 37.148700811301744, -92.90771484375 11.297401622603488, -92.90771484375 -63 M-92.90771484375 63 C-92.90771484375 28.895486702531493, -92.90771484375 -5.209026594937015, -92.90771484375 -63" stroke="#1a1a1a" stroke-width="1.3" fill="none" stroke-dasharray="0 0" style=""/></g><g class="annotation-group text" transform="translate(0, -43)"/><g class="label-group text" transform="translate(-30.9404296875, -43)"><g class="label" style="font-weight: bolder" transform="translate(0,-8.5)"><g><rect class="background" style="stroke: none"/><text y="-10.1" style=""><tspan class="text-outer-tspan row" x="0" y="-0.1em" dy="1.1em" font-weight=""><tspan font-style="normal" class="text-inner-tspan" font-weight="">Instance</tspan></tspan></text></g></g></g><g class="members-group text" transform="translate(-80.90771484375, -2)"><g class="label" style="" transform="translate(0,-8.5)"><g><rect class="background" style="stroke: none"/><text y="-10.1" style=""><tspan class="text-outer-tspan row" x="0" y="-0.1em" dy="1.1em"><tspan font-style="normal" class="text-inner-tspan" font-weight="normal">def:</tspan><tspan font-style="normal" class="text-inner-tspan" font-weight="normal"> InstanceKind</tspan></tspan></text></g></g><g class="label" style="" transform="translate(0,11.5)"><g><rect class="background" style="stroke: none"/><text y="-10.1" style=""><tspan class="text-outer-tspan row" x="0" y="-0.1em" dy="1.1em"><tspan font-style="normal" class="text-inner-tspan" font-weight="normal">args:</tspan><tspan font-style="normal" class="text-inner-tspan" font-weight="normal"> GenericArgs</tspan></tspan></text></g></g></g><g class="methods-group text" transform="translate(-80.90771484375, 59)"/><g class="divider" style=""><path d="M-92.90771484375 -22 C-48.88134132399331 -21.99976306395226, -4.854967804236622 -21.999526127904513, 92.90771484375 -21.999 M-92.90771484375 -22 C-51.7457039762129 -21.99977847904807, -10.583693108675803 -21.99955695809614, 92.90771484375 -21.999" stroke="#1a1a1a" stroke-width="1.3" fill="none" stroke-dasharray="0 0" style=""/></g><g class="divider" style=""><path d="M-92.90771484375 39 C-25.879738574027854 39.00036072341453, 41.14823769569429 39.00072144682906, 92.90771484375 39.001 M-92.90771484375 39 C-52.560333899282746 39.00021713687077, -12.212952954815492 39.000434273741554, 92.90771484375 39.001" stroke="#1a1a1a" stroke-width="1.3" fill="none" stroke-dasharray="0 0" style=""/></g></g><g class="node default" id="my-svg-classId-InstanceKind-1" data-look="classic" transform="translate(283.044921875, 229.5)"><g class="basic label-container outer-path"><path d="M-58.3349609375 -38.5 L58.3349609375 -38.5 L58.3349609375 38.5 L-58.3349609375 38.5" stroke="none" stroke-width="0" fill="#FBF7F0" style=""/><path d="M-58.3349609375 -38.5 C-34.86326323985517 -38.5, -11.391565542210337 -38.5, 58.3349609375 -38.5 M-58.3349609375 -38.5 C-13.209191825956708 -38.5, 31.916577285586584 -38.5, 58.3349609375 -38.5 M58.3349609375 -38.5 C58.3349609375 -9.307297523772483, 58.3349609375 19.885404952455033, 58.3349609375 38.5 M58.3349609375 -38.5 C58.3349609375 -10.188618633721287, 58.3349609375 18.122762732557426, 58.3349609375 38.5 M58.3349609375 38.5 C33.56634506270358 38.5, 8.797729187907166 38.5, -58.3349609375 38.5 M58.3349609375 38.5 C15.117915979026215 38.5, -28.09912897944757 38.5, -58.3349609375 38.5 M-58.3349609375 38.5 C-58.3349609375 18.62495324648398, -58.3349609375 -1.250093507032041, -58.3349609375 -38.5 M-58.3349609375 38.5 C-58.3349609375 23.075724254261722, -58.3349609375 7.651448508523448, -58.3349609375 -38.5" stroke="#1a1a1a" stroke-width="1.3" fill="none" stroke-dasharray="0 0" style=""/></g><g class="annotation-group text" transform="translate(0, -18.5)"/><g class="label-group text" transform="translate(-46.3349609375, -18.5)"><g class="label" style="font-weight: bolder" transform="translate(0,-8.5)"><g><rect class="background" style="stroke: none"/><text y="-10.1" style=""><tspan class="text-outer-tspan row" x="0" y="-0.1em" dy="1.1em" font-weight=""><tspan font-style="normal" class="text-inner-tspan" font-weight="">InstanceKind</tspan></tspan></text></g></g></g><g class="members-group text" transform="translate(-46.3349609375, 22.5)"/><g class="methods-group text" transform="translate(-46.3349609375, 52.5)"/><g class="divider" style=""><path d="M-58.3349609375 2.5 C-33.43956873621002 2.500213383122241, -8.544176534920034 2.5004267662444817, 58.3349609375 2.501 M-58.3349609375 2.5 C-22.80192427614363 2.50030456038789, 12.73111238521274 2.50060912077578, 58.3349609375 2.501" stroke="#1a1a1a" stroke-width="1.3" fill="none" stroke-dasharray="0 0" style=""/></g><g class="divider" style=""><path d="M-58.3349609375 20.5 C-33.295742074980296 20.5002146158878, -8.2565232124606 20.500429231775595, 58.3349609375 20.501 M-58.3349609375 20.5 C-33.51581310710566 20.500212729617296, -8.696665276711308 20.50042545923459, 58.3349609375 20.501" stroke="#1a1a1a" stroke-width="1.3" fill="none" stroke-dasharray="0 0" style=""/></g></g><g class="node default" id="my-svg-classId-Item-2" data-look="classic" transform="translate(52.4912109375, 433.4000015258789)"><g class="basic label-container outer-path"><path d="M-27.5458984375 -38.5 L27.5458984375 -38.5 L27.5458984375 38.5 L-27.5458984375 38.5" stroke="none" stroke-width="0" fill="#FBF7F0" style=""/><path d="M-27.5458984375 -38.5 C-9.871394569560895 -38.5, 7.80310929837821 -38.5, 27.5458984375 -38.5 M-27.5458984375 -38.5 C-7.820362818602625 -38.5, 11.90517280029475 -38.5, 27.5458984375 -38.5 M27.5458984375 -38.5 C27.5458984375 -11.282799266546178, 27.5458984375 15.934401466907644, 27.5458984375 38.5 M27.5458984375 -38.5 C27.5458984375 -21.162809567654524, 27.5458984375 -3.825619135309047, 27.5458984375 38.5 M27.5458984375 38.5 C7.229306360804678 38.5, -13.087285715890644 38.5, -27.5458984375 38.5 M27.5458984375 38.5 C5.9650721859874665 38.5, -15.615754065525067 38.5, -27.5458984375 38.5 M-27.5458984375 38.5 C-27.5458984375 18.79538926457885, -27.5458984375 -0.9092214708422972, -27.5458984375 -38.5 M-27.5458984375 38.5 C-27.5458984375 8.765966392122326, -27.5458984375 -20.968067215755347, -27.5458984375 -38.5" stroke="#1a1a1a" stroke-width="1.3" fill="none" stroke-dasharray="0 0" style=""/></g><g class="annotation-group text" transform="translate(0, -18.5)"/><g class="label-group text" transform="translate(-15.5458984375, -18.5)"><g class="label" style="font-weight: bolder" transform="translate(0,-8.5)"><g><rect class="background" style="stroke: none"/><text y="-10.1" style=""><tspan class="text-outer-tspan row" x="0" y="-0.1em" dy="1.1em" font-weight=""><tspan font-style="normal" class="text-inner-tspan" font-weight="">Item</tspan></tspan></text></g></g></g><g class="members-group text" transform="translate(-15.5458984375, 22.5)"/><g class="methods-group text" transform="translate(-15.5458984375, 52.5)"/><g class="divider" style=""><path d="M-27.5458984375 2.5 C-15.261473476450439 2.500222981018189, -2.9770485154008774 2.500445962036378, 27.5458984375 2.501 M-27.5458984375 2.5 C-11.695138865214497 2.5002877154217398, 4.155620707071005 2.500575430843479, 27.5458984375 2.501" stroke="#1a1a1a" stroke-width="1.3" fill="none" stroke-dasharray="0 0" style=""/></g><g class="divider" style=""><path d="M-27.5458984375 20.5 C-12.799662158540306 20.50026766664214, 1.9465741204193883 20.50053533328428, 27.5458984375 20.501 M-27.5458984375 20.5 C-15.915728531132347 20.50021110529273, -4.285558624764693 20.500422210585462, 27.5458984375 20.501" stroke="#1a1a1a" stroke-width="1.3" fill="none" stroke-dasharray="0 0" style=""/></g></g><g class="node default" id="my-svg-classId-Intrinsic-3" data-look="classic" transform="translate(195.974609375, 433.4000015258789)"><g class="basic label-container outer-path"><path d="M-46.640625 -38.5 L46.640625 -38.5 L46.640625 38.5 L-46.640625 38.5" stroke="none" stroke-width="0" fill="#FBF7F0" style=""/><path d="M-46.640625 -38.5 C-18.169932072519405 -38.5, 10.30076085496119 -38.5, 46.640625 -38.5 M-46.640625 -38.5 C-21.952213894389935 -38.5, 2.73619721122013 -38.5, 46.640625 -38.5 M46.640625 -38.5 C46.640625 -19.41495860510546, 46.640625 -0.32991721021092246, 46.640625 38.5 M46.640625 -38.5 C46.640625 -20.170243237408933, 46.640625 -1.8404864748178653, 46.640625 38.5 M46.640625 38.5 C17.754787615066355 38.5, -11.131049769867289 38.5, -46.640625 38.5 M46.640625 38.5 C15.111285205808045 38.5, -16.41805458838391 38.5, -46.640625 38.5 M-46.640625 38.5 C-46.640625 21.800980231229094, -46.640625 5.101960462458187, -46.640625 -38.5 M-46.640625 38.5 C-46.640625 8.302022556071414, -46.640625 -21.895954887857172, -46.640625 -38.5" stroke="#1a1a1a" stroke-width="1.3" fill="none" stroke-dasharray="0 0" style=""/></g><g class="annotation-group text" transform="translate(0, -18.5)"/><g class="label-group text" transform="translate(-34.640625, -18.5)"><g class="label" style="font-weight: bolder" transform="translate(0,-8.5)"><g><rect class="background" style="stroke: none"/><text y="-10.1" style=""><tspan class="text-outer-tspan row" x="0" y="-0.1em" dy="1.1em" font-weight=""><tspan font-style="normal" class="text-inner-tspan" font-weight="">Intrinsic</tspan></tspan></text></g></g></g><g class="members-group text" transform="translate(-34.640625, 22.5)"/><g class="methods-group text" transform="translate(-34.640625, 52.5)"/><g class="divider" style=""><path d="M-46.640625 2.5 C-18.69964465162247 2.5002995347977044, 9.241335696755058 2.5005990695954092, 46.640625 2.501 M-46.640625 2.5 C-26.526126270000656 2.500215632817206, -6.411627540001312 2.500431265634412, 46.640625 2.501" stroke="#1a1a1a" stroke-width="1.3" fill="none" stroke-dasharray="0 0" style=""/></g><g class="divider" style=""><path d="M-46.640625 20.5 C-14.155057963578983 20.50034825398498, 18.330509072842034 20.500696507969963, 46.640625 20.501 M-46.640625 20.5 C-24.90641230065752 20.50023299658505, -3.172199601315043 20.500465993170103, 46.640625 20.501" stroke="#1a1a1a" stroke-width="1.3" fill="none" stroke-dasharray="0 0" style=""/></g></g><g class="node default" id="my-svg-classId-Virtual-4" data-look="classic" transform="translate(370.115234375, 433.4000015258789)"><g class="basic label-container outer-path"><path d="M-39.591796875 -38.5 L39.591796875 -38.5 L39.591796875 38.5 L-39.591796875 38.5" stroke="none" stroke-width="0" fill="#FBF7F0" style=""/><path d="M-39.591796875 -38.5 C-11.608427300401495 -38.5, 16.37494227419701 -38.5, 39.591796875 -38.5 M-39.591796875 -38.5 C-18.548946190449687 -38.5, 2.493904494100626 -38.5, 39.591796875 -38.5 M39.591796875 -38.5 C39.591796875 -19.039168292968057, 39.591796875 0.42166341406388597, 39.591796875 38.5 M39.591796875 -38.5 C39.591796875 -12.520050434167203, 39.591796875 13.459899131665594, 39.591796875 38.5 M39.591796875 38.5 C11.916175853052618 38.5, -15.759445168894764 38.5, -39.591796875 38.5 M39.591796875 38.5 C14.827624183131363 38.5, -9.936548508737275 38.5, -39.591796875 38.5 M-39.591796875 38.5 C-39.591796875 8.600281687056391, -39.591796875 -21.299436625887218, -39.591796875 -38.5 M-39.591796875 38.5 C-39.591796875 8.491225232413715, -39.591796875 -21.51754953517257, -39.591796875 -38.5" stroke="#1a1a1a" stroke-width="1.3" fill="none" stroke-dasharray="0 0" style=""/></g><g class="annotation-group text" transform="translate(0, -18.5)"/><g class="label-group text" transform="translate(-27.591796875, -18.5)"><g class="label" style="font-weight: bolder" transform="translate(0,-8.5)"><g><rect class="background" style="stroke: none"/><text y="-10.1" style=""><tspan class="text-outer-tspan row" x="0" y="-0.1em" dy="1.1em" font-weight=""><tspan font-style="normal" class="text-inner-tspan" font-weight="">Virtual</tspan></tspan></text></g></g></g><g class="members-group text" transform="translate(-27.591796875, 22.5)"/><g class="methods-group text" transform="translate(-27.591796875, 52.5)"/><g class="divider" style=""><path d="M-39.591796875 2.5 C-19.965812312700212 2.5002478541782818, -0.3398277504004241 2.5004957083565635, 39.591796875 2.501 M-39.591796875 2.5 C-23.51726495446205 2.5002030033136826, -7.4427330339241 2.500406006627365, 39.591796875 2.501" stroke="#1a1a1a" stroke-width="1.3" fill="none" stroke-dasharray="0 0" style=""/></g><g class="divider" style=""><path d="M-39.591796875 20.5 C-14.113130991934892 20.500321766980715, 11.365534891130217 20.50064353396143, 39.591796875 20.501 M-39.591796875 20.5 C-18.280711642575834 20.50026913511023, 3.030373589848331 20.500538270220463, 39.591796875 20.501" stroke="#1a1a1a" stroke-width="1.3" fill="none" stroke-dasharray="0 0" style=""/></g></g><g class="node default" id="my-svg-classId-Shim-5" data-look="classic" transform="translate(559.7861328125, 433.4000015258789)"><g class="basic label-container outer-path"><path d="M-77.65380859375 -93 L77.65380859375 -93 L77.65380859375 93 L-77.65380859375 93" stroke="none" stroke-width="0" fill="#FBF7F0" style=""/><path d="M-77.65380859375 -93 C-32.86736482717272 -93, 11.919078939404557 -93, 77.65380859375 -93 M-77.65380859375 -93 C-39.71801302774661 -93, -1.7822174617432154 -93, 77.65380859375 -93 M77.65380859375 -93 C77.65380859375 -26.099934218255157, 77.65380859375 40.800131563489686, 77.65380859375 93 M77.65380859375 -93 C77.65380859375 -27.863470047425537, 77.65380859375 37.273059905148926, 77.65380859375 93 M77.65380859375 93 C31.890342242572707 93, -13.873124108604586 93, -77.65380859375 93 M77.65380859375 93 C38.180309685363504 93, -1.293189223022992 93, -77.65380859375 93 M-77.65380859375 93 C-77.65380859375 41.3869772396383, -77.65380859375 -10.226045520723403, -77.65380859375 -93 M-77.65380859375 93 C-77.65380859375 22.910191738452298, -77.65380859375 -47.179616523095405, -77.65380859375 -93" stroke="#1a1a1a" stroke-width="1.3" fill="none" stroke-dasharray="0 0" style=""/></g><g class="annotation-group text" transform="translate(0, -73)"/><g class="label-group text" transform="translate(-15.5458984375, -73)"><g class="label" style="font-weight: bolder" transform="translate(0,-8.5)"><g><rect class="background" style="stroke: none"/><text y="-10.1" style=""><tspan class="text-outer-tspan row" x="0" y="-0.1em" dy="1.1em" font-weight=""><tspan font-style="normal" class="text-inner-tspan" font-weight="">Shim</tspan></tspan></text></g></g></g><g class="members-group text" transform="translate(-65.65380859375, -32)"><g class="label" style="" transform="translate(0,-8.5)"><g><rect class="background" style="stroke: none"/><text y="-10.1" style=""><tspan class="text-outer-tspan row" x="0" y="-0.1em" dy="1.1em"><tspan font-style="normal" class="text-inner-tspan" font-weight="normal">DropGlue</tspan></tspan></text></g></g><g class="label" style="" transform="translate(0,11.5)"><g><rect class="background" style="stroke: none"/><text y="-10.1" style=""><tspan class="text-outer-tspan row" x="0" y="-0.1em" dy="1.1em"><tspan font-style="normal" class="text-inner-tspan" font-weight="normal">CloneShim</tspan></tspan></text></g></g><g class="label" style="" transform="translate(0,31.5)"><g><rect class="background" style="stroke: none"/><text y="-10.1" style=""><tspan class="text-outer-tspan row" x="0" y="-0.1em" dy="1.1em"><tspan font-style="normal" class="text-inner-tspan" font-weight="normal">ClosureOnceShim</tspan></tspan></text></g></g><g class="label" style="" transform="translate(0,51.5)"><g><rect class="background" style="stroke: none"/><text y="-10.1" style=""><tspan class="text-outer-tspan row" x="0" y="-0.1em" dy="1.1em"><tspan font-style="normal" class="text-inner-tspan" font-weight="normal">VTableShim</tspan></tspan></text></g></g><g class="label" style="" transform="translate(0,71.5)"><g><rect class="background" style="stroke: none"/><text y="-10.1" style=""><tspan class="text-outer-tspan row" x="0" y="-0.1em" dy="1.1em"><tspan font-style="normal" class="text-inner-tspan" font-weight="normal">FnPtrShim</tspan></tspan></text></g></g></g><g class="methods-group text" transform="translate(-65.65380859375, 89)"/><g class="divider" style=""><path d="M-77.65380859375 -52 C-43.48812411130775 -51.999780012821645, -9.322439628865496 -51.999560025643284, 77.65380859375 -51.999 M-77.65380859375 -52 C-38.94686792178256 -51.99975077242589, -0.2399272498151248 -51.99950154485179, 77.65380859375 -51.999" stroke="#1a1a1a" stroke-width="1.3" fill="none" stroke-dasharray="0 0" style=""/></g><g class="divider" style=""><path d="M-77.65380859375 69 C-43.495651870745846 69.00021993870837, -9.337495147741691 69.00043987741672, 77.65380859375 69.001 M-77.65380859375 69 C-33.36218964899235 69.00028518639168, 10.929429295765303 69.00057037278334, 77.65380859375 69.001" stroke="#1a1a1a" stroke-width="1.3" fill="none" stroke-dasharray="0 0" style=""/></g></g></g></g></g><defs><filter id="my-svg-drop-shadow" height="130%" width="130%"><feDropShadow dx="4" dy="4" stdDeviation="0" flood-opacity="0.06" flood-color="#000000"/></filter></defs><defs><filter id="my-svg-drop-shadow-small" height="150%" width="150%"><feDropShadow dx="2" dy="2" stdDeviation="0" flood-opacity="0.06" flood-color="#000000"/></filter></defs><linearGradient id="my-svg-gradient" gradientUnits="objectBoundingBox" x1="0%" y1="0%" x2="100%" y2="0%"><stop offset="0%" stop-color="#1a1a1a" stop-opacity="1"/><stop offset="100%" stop-color="hsl(36, 2.8571428571%, 83.137254902%)" stop-opacity="1"/></linearGradient></svg>