<svg id="my-svg" width="504.75830078125" xmlns="http://www.w3.org/2000/svg" xmlns:xlink="http://www.w3.org/1999/xlink" class="classDiagram" height="814" viewBox="0 0 504.75830078125 814" role="graphics-document document" aria-roledescription="class" aria-describedby="chart-desc-my-svg" aria-labelledby="chart-title-my-svg" style="background-color: transparent;"><title id="chart-title-my-svg">LLVM object model</title><desc id="chart-desc-my-svg">A per-CGU LLVM Context owns Modules (one per codegen unit), each containing Functions, BasicBlocks, and instructions; an IRBuilder positioned at a block appends instructions to it.</desc><style>#my-svg{font-family:'JetBrains Mono','SF Mono','Berkeley Mono','Consolas','DejaVu Sans Mono',monospace;font-size:14px;fill:#1a1a1a;}@keyframes edge-animation-frame{from{stroke-dashoffset:0;}}@keyframes dash{to{stroke-dashoffset:0;}}#my-svg .edge-animation-slow{stroke-dasharray:9,5!important;stroke-dashoffset:900;animation:dash 50s linear infinite;stroke-linecap:round;}#my-svg .edge-animation-fast{stroke-dasharray:9,5!important;stroke-dashoffset:900;animation:dash 20s linear infinite;stroke-linecap:round;}#my-svg .error-icon{fill:#FBF7F0;}#my-svg .error-text{fill:#04080f;stroke:#04080f;}#my-svg .edge-thickness-normal{stroke-width:1px;}#my-svg .edge-thickness-thick{stroke-width:3.5px;}#my-svg .edge-pattern-solid{stroke-dasharray:0;}#my-svg .edge-thickness-invisible{stroke-width:0;fill:none;}#my-svg .edge-pattern-dashed{stroke-dasharray:3;}#my-svg .edge-pattern-dotted{stroke-dasharray:2;}#my-svg .marker{fill:#1a1a1a;stroke:#1a1a1a;}#my-svg .marker.cross{stroke:#1a1a1a;}#my-svg svg{font-family:'JetBrains Mono','SF Mono','Berkeley Mono','Consolas','DejaVu Sans Mono',monospace;font-size:14px;}#my-svg p{margin:0;}#my-svg g.classGroup text{fill:#1a1a1a;stroke:none;font-family:'JetBrains Mono','SF Mono','Berkeley Mono','Consolas','DejaVu Sans Mono',monospace;font-size:10px;}#my-svg g.classGroup text .title{font-weight:bolder;}#my-svg .cluster-label text{fill:#1a1a1a;}#my-svg .cluster-label span{color:#1a1a1a;}#my-svg .cluster-label span p{background-color:transparent;}#my-svg .cluster rect{fill:#F5EFE6;stroke:#1a1a1a;stroke-width:1px;}#my-svg .cluster text{fill:#1a1a1a;}#my-svg .cluster span{color:#1a1a1a;}#my-svg .nodeLabel,#my-svg .edgeLabel{color:#1a1a1a;}#my-svg .noteLabel .nodeLabel,#my-svg .noteLabel .edgeLabel{color:#1a1a1a;}#my-svg .edgeLabel .label rect{fill:#FBF7F0;}#my-svg .label text{fill:#1a1a1a;}#my-svg .labelBkg{background:#FBF7F0;}#my-svg .edgeLabel .label span{background:#FBF7F0;}#my-svg .classTitle{font-weight:bolder;}#my-svg .node rect,#my-svg .node circle,#my-svg .node ellipse,#my-svg .node polygon,#my-svg .node path{fill:#FBF7F0;stroke:#1a1a1a;stroke-width:1;}#my-svg .divider{stroke:#1a1a1a;stroke-width:1;}#my-svg g.clickable{cursor:pointer;}#my-svg g.classGroup rect{fill:#FBF7F0;stroke:#1a1a1a;}#my-svg g.classGroup line{stroke:#1a1a1a;stroke-width:1;}#my-svg .classLabel .box{stroke:none;stroke-width:0;fill:#FBF7F0;opacity:0.5;}#my-svg .classLabel .label{fill:#1a1a1a;font-size:10px;}#my-svg .relation{stroke:#1a1a1a;stroke-width:1;fill:none;}#my-svg .dashed-line{stroke-dasharray:3;}#my-svg .dotted-line{stroke-dasharray:1 2;}#my-svg [id$="-compositionStart"],#my-svg .composition{fill:#1a1a1a!important;stroke:#1a1a1a!important;stroke-width:1;}#my-svg [id$="-compositionEnd"],#my-svg .composition{fill:#1a1a1a!important;stroke:#1a1a1a!important;stroke-width:1;}#my-svg [id$="-dependencyStart"],#my-svg .dependency{fill:#1a1a1a!important;stroke:#1a1a1a!important;stroke-width:1;}#my-svg [id$="-dependencyEnd"],#my-svg .dependency{fill:#1a1a1a!important;stroke:#1a1a1a!important;stroke-width:1;}#my-svg [id$="-extensionStart"],#my-svg .extension{fill:transparent!important;stroke:#1a1a1a!important;stroke-width:1;}#my-svg [id$="-extensionEnd"],#my-svg .extension{fill:transparent!important;stroke:#1a1a1a!important;stroke-width:1;}#my-svg [id$="-aggregationStart"],#my-svg .aggregation{fill:transparent!important;stroke:#1a1a1a!important;stroke-width:1;}#my-svg [id$="-aggregationEnd"],#my-svg .aggregation{fill:transparent!important;stroke:#1a1a1a!important;stroke-width:1;}#my-svg [id$="-lollipopStart"],#my-svg .lollipop{fill:#FBF7F0!important;stroke:#1a1a1a!important;stroke-width:1;}#my-svg [id$="-lollipopEnd"],#my-svg .lollipop{fill:#FBF7F0!important;stroke:#1a1a1a!important;stroke-width:1;}#my-svg .edgeTerminals{font-size:11px;line-height:initial;}#my-svg .classTitleText{text-anchor:middle;font-size:18px;fill:#1a1a1a;}#my-svg .edgeLabel[data-look="neo"]{background-color:#FBF7F0;text-align:center;}#my-svg .edgeLabel[data-look="neo"] p{background-color:#FBF7F0;}#my-svg .edgeLabel[data-look="neo"] rect{opacity:0.5;background-color:#FBF7F0;fill:#FBF7F0;}#my-svg .label-icon{display:inline-block;height:1em;overflow:visible;vertical-align:-0.125em;}#my-svg .node .label-icon path{fill:currentColor;stroke:revert;stroke-width:revert;}#my-svg .node .neo-node{stroke:#1a1a1a;}#my-svg [data-look="neo"].node rect,#my-svg [data-look="neo"].cluster rect,#my-svg [data-look="neo"].node polygon{stroke:url(#my-svg-gradient);filter:drop-shadow( 1px 2px 2px rgba(185,185,185,1));}#my-svg [data-look="neo"].node path{stroke:url(#my-svg-gradient);stroke-width:1px;}#my-svg [data-look="neo"].node .outer-path{filter:drop-shadow( 1px 2px 2px rgba(185,185,185,1));}#my-svg [data-look="neo"].node .neo-line path{stroke:#1a1a1a;filter:none;}#my-svg [data-look="neo"].node circle{stroke:url(#my-svg-gradient);filter:drop-shadow( 1px 2px 2px rgba(185,185,185,1));}#my-svg [data-look="neo"].node circle .state-start{fill:#000000;}#my-svg [data-look="neo"].icon-shape .icon{fill:url(#my-svg-gradient);filter:drop-shadow( 1px 2px 2px rgba(185,185,185,1));}#my-svg [data-look="neo"].icon-shape .icon-neo path{stroke:url(#my-svg-gradient);filter:drop-shadow( 1px 2px 2px rgba(185,185,185,1));}#my-svg :root{--mermaid-font-family:"trebuchet ms",verdana,arial,sans-serif;}</style><g><defs><marker id="my-svg_class-aggregationStart" class="marker aggregation class" refX="18" refY="7" markerWidth="190" markerHeight="240" orient="auto"><path d="M 18,7 L9,13 L1,7 L9,1 Z"/></marker></defs><defs><marker id="my-svg_class-aggregationEnd" class="marker aggregation class" refX="1" refY="7" markerWidth="20" markerHeight="28" orient="auto"><path d="M 18,7 L9,13 L1,7 L9,1 Z"/></marker></defs><defs><marker id="my-svg_class-aggregationStart-margin" class="marker aggregation class" refX="15" refY="7" markerWidth="190" markerHeight="240" orient="auto" markerUnits="userSpaceOnUse"><path d="M 18,7 L9,13 L1,7 L9,1 Z" style="stroke-width: 2;"/></marker></defs><defs><marker id="my-svg_class-aggregationEnd-margin" class="marker aggregation class" refX="1" refY="7" markerWidth="20" markerHeight="28" orient="auto" markerUnits="userSpaceOnUse"><path d="M 18,7 L9,13 L1,7 L9,1 Z" style="stroke-width: 2;"/></marker></defs><defs><marker id="my-svg_class-extensionStart" class="marker extension class" refX="18" refY="7" markerWidth="20" markerHeight="28" orient="auto" markerUnits="userSpaceOnUse"><path d="M 1,7 L18,13 V 1 Z"/></marker></defs><defs><marker id="my-svg_class-extensionEnd" class="marker extension class" refX="1" refY="7" markerWidth="20" markerHeight="28" orient="auto"><path d="M 1,1 V 13 L18,7 Z"/></marker></defs><marker id="my-svg_class-extensionStart-margin" class="marker extension class" refX="18" refY="7" markerWidth="20" markerHeight="28" orient="auto" markerUnits="userSpaceOnUse" viewBox="0 0 20 14"><polygon points="10,7 18,13 18,1" style="stroke-width: 2; stroke-dasharray: 0;"/></marker><defs><marker id="my-svg_class-extensionEnd-margin" class="marker extension class" refX="9" refY="7" markerWidth="20" markerHeight="28" orient="auto" markerUnits="userSpaceOnUse" viewBox="0 0 20 14"><polygon points="10,1 10,13 18,7" style="stroke-width: 2; stroke-dasharray: 0;"/></marker></defs><defs><marker id="my-svg_class-compositionStart" class="marker composition class" refX="18" refY="7" markerWidth="190" markerHeight="240" orient="auto"><path d="M 18,7 L9,13 L1,7 L9,1 Z"/></marker></defs><defs><marker id="my-svg_class-compositionEnd" class="marker composition class" refX="1" refY="7" markerWidth="20" markerHeight="28" orient="auto"><path d="M 18,7 L9,13 L1,7 L9,1 Z"/></marker></defs><defs><marker id="my-svg_class-compositionStart-margin" class="marker composition class" refX="15" refY="7" markerWidth="190" markerHeight="240" orient="auto" markerUnits="userSpaceOnUse"><path viewBox="0 0 15 15" d="M 18,7 L9,13 L1,7 L9,1 Z" style="stroke-width: 0;"/></marker></defs><defs><marker id="my-svg_class-compositionEnd-margin" class="marker composition class" refX="3.5" refY="7" markerWidth="20" markerHeight="28" orient="auto" markerUnits="userSpaceOnUse"><path d="M 18,7 L9,13 L1,7 L9,1 Z" style="stroke-width: 0;"/></marker></defs><defs><marker id="my-svg_class-dependencyStart" class="marker dependency class" refX="6" refY="7" markerWidth="190" markerHeight="240" orient="auto"><path d="M 5,7 L9,13 L1,7 L9,1 Z"/></marker></defs><defs><marker id="my-svg_class-dependencyEnd" class="marker dependency class" refX="13" refY="7" markerWidth="20" markerHeight="28" orient="auto"><path d="M 18,7 L9,13 L14,7 L9,1 Z"/></marker></defs><defs><marker id="my-svg_class-dependencyStart-margin" class="marker dependency class" refX="4" refY="7" markerWidth="190" markerHeight="240" orient="auto" markerUnits="userSpaceOnUse"><path d="M 5,7 L9,13 L1,7 L9,1 Z" style="stroke-width: 0;"/></marker></defs><defs><marker id="my-svg_class-dependencyEnd-margin" class="marker dependency class" refX="16" refY="7" markerWidth="20" markerHeight="28" orient="auto" markerUnits="userSpaceOnUse"><path d="M 18,7 L9,13 L14,7 L9,1 Z" style="stroke-width: 0;"/></marker></defs><defs><marker id="my-svg_class-lollipopStart" class="marker lollipop class" refX="13" refY="7" markerWidth="190" markerHeight="240" orient="auto"><circle fill="transparent" cx="7" cy="7" r="6"/></marker></defs><defs><marker id="my-svg_class-lollipopEnd" class="marker lollipop class" refX="1" refY="7" markerWidth="190" markerHeight="240" orient="auto"><circle fill="transparent" cx="7" cy="7" r="6"/></marker></defs><defs><marker id="my-svg_class-lollipopStart-margin" class="marker lollipop class" refX="13" refY="7" markerWidth="190" markerHeight="240" orient="auto" markerUnits="userSpaceOnUse"><circle fill="transparent" cx="7" cy="7" r="6" stroke-width="2"/></marker></defs><defs><marker id="my-svg_class-lollipopEnd-margin" class="marker lollipop class" refX="1" refY="7" markerWidth="190" markerHeight="240" orient="auto" markerUnits="userSpaceOnUse"><circle fill="transparent" cx="7" cy="7" r="6" stroke-width="2"/></marker></defs><g class="root"><g class="clusters"/><g class="edgePaths"><path d="M110.457,151.25L110.457,153.125C110.457,155,110.457,158.75,110.457,165.375C110.457,172,110.457,181.5,110.457,186.25L110.457,191" id="my-svg-id_Context_Module_1" class="edge-thickness-normal edge-pattern-solid relation" style=";;;" data-edge="true" data-et="edge" data-id="id_Context_Module_1" data-points="W3sieCI6MTEwLjQ1NzAzMTI1LCJ5IjoxMzR9LHsieCI6MTEwLjQ1NzAzMTI1LCJ5IjoxNjIuNX0seyJ4IjoxMTAuNDU3MDMxMjUsInkiOjE5MX1d" data-look="classic" marker-start="url(#my-svg_class-compositionStart)"/><path d="M110.457,314.25L110.457,316.125C110.457,318,110.457,321.75,110.457,328.375C110.457,335,110.457,344.5,110.457,349.25L110.457,354" id="my-svg-id_Module_Function_2" class="edge-thickness-normal edge-pattern-solid relation" style=";;;" data-edge="true" data-et="edge" data-id="id_Module_Function_2" data-points="W3sieCI6MTEwLjQ1NzAzMTI1LCJ5IjoyOTd9LHsieCI6MTEwLjQ1NzAzMTI1LCJ5IjozMjUuNX0seyJ4IjoxMTAuNDU3MDMxMjUsInkiOjM1NH1d" data-look="classic" marker-start="url(#my-svg_class-compositionStart)"/><path d="M110.457,477.25L110.457,479.125C110.457,481,110.457,484.75,110.457,491.375C110.457,498,110.457,507.5,110.457,512.25L110.457,517" id="my-svg-id_Function_BasicBlock_3" class="edge-thickness-normal edge-pattern-solid relation" style=";;;" data-edge="true" data-et="edge" data-id="id_Function_BasicBlock_3" data-points="W3sieCI6MTEwLjQ1NzAzMTI1LCJ5Ijo0NjB9LHsieCI6MTEwLjQ1NzAzMTI1LCJ5Ijo0ODguNX0seyJ4IjoxMTAuNDU3MDMxMjUsInkiOjUxN31d" data-look="classic" marker-start="url(#my-svg_class-compositionStart)"/><path d="M110.457,640.25L110.457,642.125C110.457,644,110.457,647.75,117.119,654.375C123.782,661,137.107,670.5,143.769,675.25L150.432,680" id="my-svg-id_BasicBlock_Instruction_4" class="edge-thickness-normal edge-pattern-solid relation" style=";;;" data-edge="true" data-et="edge" data-id="id_BasicBlock_Instruction_4" data-points="W3sieCI6MTEwLjQ1NzAzMTI1LCJ5Ijo2MjN9LHsieCI6MTEwLjQ1NzAzMTI1LCJ5Ijo2NTEuNX0seyJ4IjoxNTAuNDMxNTA4NTQ4OTI0MTcsInkiOjY4MH1d" data-look="classic" marker-start="url(#my-svg_class-compositionStart)"/><path d="M367.135,623L367.135,627.75C367.135,632.5,367.135,642,361.287,650.919C355.439,659.839,343.743,668.178,337.894,672.347L332.046,676.517" id="my-svg-id_IRBuilder_Instruction_5" class="edge-thickness-normal edge-pattern-dashed relation" style=";;;" data-edge="true" data-et="edge" data-id="id_IRBuilder_Instruction_5" data-points="W3sieCI6MzY3LjEzNTI1MzkwNjI1LCJ5Ijo2MjN9LHsieCI6MzY3LjEzNTI1MzkwNjI1LCJ5Ijo2NTEuNX0seyJ4IjozMjcuMTYwNzc2NjA3MzI1ODMsInkiOjY4MH1d" data-look="classic" marker-end="url(#my-svg_class-dependencyEnd)"/></g><g class="edgeLabels"><g class="edgeLabel" transform="translate(110.45703125, 162.5)"><g class="label" data-id="id_Context_Module_1" transform="translate(0, -9.500000953674316)"><g><rect class="background" style="" x="-17.3984375" y="-0.9999990463256836" width="34.796875" height="21"/><text y="-10.1" text-anchor="middle" style=""><tspan class="text-outer-tspan row" x="0" y="-0.1em" dy="1.1em" text-anchor="middle"><tspan font-style="normal" class="text-inner-tspan" font-weight="normal">owns</tspan></tspan></text></g></g></g><g class="edgeLabel" transform="translate(110.45703125, 325.5)"><g class="label" data-id="id_Module_Function_2" transform="translate(0, -9.500000953674316)"><g><rect class="background" style="" x="-32.7890625" y="-0.9999990463256836" width="65.578125" height="21"/><text y="-10.1" text-anchor="middle" style=""><tspan class="text-outer-tspan row" x="0" y="-0.1em" dy="1.1em" text-anchor="middle"><tspan font-style="normal" class="text-inner-tspan" font-weight="normal">contains</tspan></tspan></text></g></g></g><g class="edgeLabel" transform="translate(110.45703125, 488.5)"><g class="label" data-id="id_Function_BasicBlock_3" transform="translate(0, -9.500000953674316)"><g><rect class="background" style="" x="-32.7890625" y="-0.9999990463256836" width="65.578125" height="21"/><text y="-10.1" text-anchor="middle" style=""><tspan class="text-outer-tspan row" x="0" y="-0.1em" dy="1.1em" text-anchor="middle"><tspan font-style="normal" class="text-inner-tspan" font-weight="normal">contains</tspan></tspan></text></g></g></g><g class="edgeLabel" transform="translate(110.45703125, 651.5)"><g class="label" data-id="id_BasicBlock_Instruction_4" transform="translate(0, -9.500000953674316)"><g><rect class="background" style="" x="-32.7890625" y="-0.9999990463256836" width="65.578125" height="21"/><text y="-10.1" text-anchor="middle" style=""><tspan class="text-outer-tspan row" x="0" y="-0.1em" dy="1.1em" text-anchor="middle"><tspan font-style="normal" class="text-inner-tspan" font-weight="normal">contains</tspan></tspan></text></g></g></g><g class="edgeLabel" transform="translate(367.13525390625, 651.5)"><g class="label" data-id="id_IRBuilder_Instruction_5" transform="translate(0, -9.500000953674316)"><g><rect class="background" style="" x="-28.9453125" y="-0.9999990463256836" width="57.890625" height="21"/><text y="-10.1" text-anchor="middle" style=""><tspan class="text-outer-tspan row" x="0" y="-0.1em" dy="1.1em" text-anchor="middle"><tspan font-style="normal" class="text-inner-tspan" font-weight="normal">appends</tspan></tspan></text></g></g></g></g><g class="nodes"><g class="node default" id="my-svg-classId-Context-0" data-look="classic" transform="translate(110.45703125, 71)"><g class="basic label-container outer-path"><path d="M-102.45703125 -63 L102.45703125 -63 L102.45703125 63 L-102.45703125 63" stroke="none" stroke-width="0" fill="#FBF7F0" style=""/><path d="M-102.45703125 -63 C-61.37649508279894 -63, -20.29595891559788 -63, 102.45703125 -63 M-102.45703125 -63 C-28.873209467109135 -63, 44.71061231578173 -63, 102.45703125 -63 M102.45703125 -63 C102.45703125 -13.217157650417029, 102.45703125 36.56568469916594, 102.45703125 63 M102.45703125 -63 C102.45703125 -22.279532227994146, 102.45703125 18.440935544011708, 102.45703125 63 M102.45703125 63 C22.293239256430184 63, -57.87055273713963 63, -102.45703125 63 M102.45703125 63 C60.64885681276482 63, 18.84068237552964 63, -102.45703125 63 M-102.45703125 63 C-102.45703125 34.99616838927335, -102.45703125 6.992336778546701, -102.45703125 -63 M-102.45703125 63 C-102.45703125 19.05373099504626, -102.45703125 -24.892538009907483, -102.45703125 -63" stroke="#1a1a1a" stroke-width="1.3" fill="none" stroke-dasharray="0 0" style=""/></g><g class="annotation-group text" transform="translate(0, -43)"/><g class="label-group text" transform="translate(-26.9453125, -43)"><g class="label" style="font-weight: bolder" transform="translate(0,-8.5)"><g><rect class="background" style="stroke: none"/><text y="-10.1" style=""><tspan class="text-outer-tspan row" x="0" y="-0.1em" dy="1.1em" font-weight=""><tspan font-style="normal" class="text-inner-tspan" font-weight="">Context</tspan></tspan></text></g></g></g><g class="members-group text" transform="translate(-90.45703125, -2)"><g class="label" style="" transform="translate(0,-8.5)"><g><rect class="background" style="stroke: none"/><text y="-10.1" style=""><tspan class="text-outer-tspan row" x="0" y="-0.1em" dy="1.1em"><tspan font-style="normal" class="text-inner-tspan" font-weight="normal">owns</tspan><tspan font-style="normal" class="text-inner-tspan" font-weight="normal"> all</tspan><tspan font-style="normal" class="text-inner-tspan" font-weight="normal"> objects</tspan></tspan></text></g></g><g class="label" style="" transform="translate(0,11.5)"><g><rect class="background" style="stroke: none"/><text y="-10.1" style=""><tspan class="text-outer-tspan row" x="0" y="-0.1em" dy="1.1em"><tspan font-style="normal" class="text-inner-tspan" font-weight="normal">one</tspan><tspan font-style="normal" class="text-inner-tspan" font-weight="normal"> per</tspan><tspan font-style="normal" class="text-inner-tspan" font-weight="normal"> codegen</tspan><tspan font-style="normal" class="text-inner-tspan" font-weight="normal"> unit</tspan></tspan></text></g></g></g><g class="methods-group text" transform="translate(-90.45703125, 59)"/><g class="divider" style=""><path d="M-102.45703125 -22 C-61.1185736389108 -21.99979826441823, -19.780116027821606 -21.999596528836463, 102.45703125 -21.999 M-102.45703125 -22 C-61.34819355551226 -21.999799384985135, -20.23935586102452 -21.99959876997027, 102.45703125 -21.999" stroke="#1a1a1a" stroke-width="1.3" fill="none" stroke-dasharray="0 0" style=""/></g><g class="divider" style=""><path d="M-102.45703125 39 C-39.863416461978325 39.000305462758504, 22.73019832604335 39.00061092551701, 102.45703125 39.001 M-102.45703125 39 C-58.5702181731418 39.000214171797396, -14.683405096283593 39.000428343594784, 102.45703125 39.001" stroke="#1a1a1a" stroke-width="1.3" fill="none" stroke-dasharray="0 0" style=""/></g></g><g class="node default" id="my-svg-classId-Module-1" data-look="classic" transform="translate(110.45703125, 244)"><g class="basic label-container outer-path"><path d="M-100.60595703125 -53 L100.60595703125 -53 L100.60595703125 53 L-100.60595703125 53" stroke="none" stroke-width="0" fill="#FBF7F0" style=""/><path d="M-100.60595703125 -53 C-57.70525967180634 -53, -14.804562312362677 -53, 100.60595703125 -53 M-100.60595703125 -53 C-22.82579097365182 -53, 54.95437508394636 -53, 100.60595703125 -53 M100.60595703125 -53 C100.60595703125 -30.709144967464212, 100.60595703125 -8.418289934928424, 100.60595703125 53 M100.60595703125 -53 C100.60595703125 -22.1308082456669, 100.60595703125 8.738383508666203, 100.60595703125 53 M100.60595703125 53 C50.001343273597854 53, -0.603270484054292 53, -100.60595703125 53 M100.60595703125 53 C58.905561337093104 53, 17.20516564293621 53, -100.60595703125 53 M-100.60595703125 53 C-100.60595703125 12.815632346431215, -100.60595703125 -27.36873530713757, -100.60595703125 -53 M-100.60595703125 53 C-100.60595703125 13.141685273066201, -100.60595703125 -26.716629453867597, -100.60595703125 -53" stroke="#1a1a1a" stroke-width="1.3" fill="none" stroke-dasharray="0 0" style=""/></g><g class="annotation-group text" transform="translate(0, -33)"/><g class="label-group text" transform="translate(-23.2431640625, -33)"><g class="label" style="font-weight: bolder" transform="translate(0,-8.5)"><g><rect class="background" style="stroke: none"/><text y="-10.1" style=""><tspan class="text-outer-tspan row" x="0" y="-0.1em" dy="1.1em" font-weight=""><tspan font-style="normal" class="text-inner-tspan" font-weight="">Module</tspan></tspan></text></g></g></g><g class="members-group text" transform="translate(-88.60595703125, 8)"><g class="label" style="" transform="translate(0,-8.5)"><g><rect class="background" style="stroke: none"/><text y="-10.1" style=""><tspan class="text-outer-tspan row" x="0" y="-0.1em" dy="1.1em"><tspan font-style="normal" class="text-inner-tspan" font-weight="normal">one</tspan><tspan font-style="normal" class="text-inner-tspan" font-weight="normal"> per</tspan><tspan font-style="normal" class="text-inner-tspan" font-weight="normal"> codegen</tspan><tspan font-style="normal" class="text-inner-tspan" font-weight="normal"> unit</tspan></tspan></text></g></g></g><g class="methods-group text" transform="translate(-88.60595703125, 49)"/><g class="divider" style=""><path d="M-100.60595703125 -12 C-31.716393474297476 -11.999657626816594, 37.17317008265505 -11.999315253633187, 100.60595703125 -11.999 M-100.60595703125 -12 C-21.056309026974205 -11.999604647426695, 58.49333897730159 -11.99920929485339, 100.60595703125 -11.999" stroke="#1a1a1a" stroke-width="1.3" fill="none" stroke-dasharray="0 0" style=""/></g><g class="divider" style=""><path d="M-100.60595703125 29 C-26.804001684416306 29.000366787203884, 46.99795366241739 29.000733574407764, 100.60595703125 29.001 M-100.60595703125 29 C-56.045557030236026 29.00022146004728, -11.485157029222052 29.000442920094557, 100.60595703125 29.001" stroke="#1a1a1a" stroke-width="1.3" fill="none" stroke-dasharray="0 0" style=""/></g></g><g class="node default" id="my-svg-classId-Function-2" data-look="classic" transform="translate(110.45703125, 407)"><g class="basic label-container outer-path"><path d="M-66.11474609375 -53 L66.11474609375 -53 L66.11474609375 53 L-66.11474609375 53" stroke="none" stroke-width="0" fill="#FBF7F0" style=""/><path d="M-66.11474609375 -53 C-14.86363321847736 -53, 36.38747965679528 -53, 66.11474609375 -53 M-66.11474609375 -53 C-31.061732725873462 -53, 3.991280642003076 -53, 66.11474609375 -53 M66.11474609375 -53 C66.11474609375 -16.098105219510046, 66.11474609375 20.803789560979908, 66.11474609375 53 M66.11474609375 -53 C66.11474609375 -30.18592786288917, 66.11474609375 -7.371855725778339, 66.11474609375 53 M66.11474609375 53 C33.9283550849003 53, 1.741964076050607 53, -66.11474609375 53 M66.11474609375 53 C23.710122083355373 53, -18.694501927039255 53, -66.11474609375 53 M-66.11474609375 53 C-66.11474609375 24.495056587228895, -66.11474609375 -4.00988682554221, -66.11474609375 -53 M-66.11474609375 53 C-66.11474609375 27.651526743753024, -66.11474609375 2.303053487506048, -66.11474609375 -53" stroke="#1a1a1a" stroke-width="1.3" fill="none" stroke-dasharray="0 0" style=""/></g><g class="annotation-group text" transform="translate(0, -33)"/><g class="label-group text" transform="translate(-30.9404296875, -33)"><g class="label" style="font-weight: bolder" transform="translate(0,-8.5)"><g><rect class="background" style="stroke: none"/><text y="-10.1" style=""><tspan class="text-outer-tspan row" x="0" y="-0.1em" dy="1.1em" font-weight=""><tspan font-style="normal" class="text-inner-tspan" font-weight="">Function</tspan></tspan></text></g></g></g><g class="members-group text" transform="translate(-54.11474609375, 8)"><g class="label" style="" transform="translate(0,-8.5)"><g><rect class="background" style="stroke: none"/><text y="-10.1" style=""><tspan class="text-outer-tspan row" x="0" y="-0.1em" dy="1.1em"><tspan font-style="normal" class="text-inner-tspan" font-weight="normal">a</tspan><tspan font-style="normal" class="text-inner-tspan" font-weight="normal"> MIR</tspan><tspan font-style="normal" class="text-inner-tspan" font-weight="normal"> Body</tspan></tspan></text></g></g></g><g class="methods-group text" transform="translate(-54.11474609375, 49)"/><g class="divider" style=""><path d="M-66.11474609375 -12 C-13.368813306286476 -11.999601103113118, 39.37711948117705 -11.999202206226238, 66.11474609375 -11.999 M-66.11474609375 -12 C-30.184909696522737 -11.999728276681678, 5.744926700704525 -11.999456553363355, 66.11474609375 -11.999" stroke="#1a1a1a" stroke-width="1.3" fill="none" stroke-dasharray="0 0" style=""/></g><g class="divider" style=""><path d="M-66.11474609375 29 C-22.112687676005415 29.000332770380417, 21.88937074173917 29.00066554076084, 66.11474609375 29.001 M-66.11474609375 29 C-18.385885899192374 29.000360954726553, 29.342974295365252 29.000721909453105, 66.11474609375 29.001" stroke="#1a1a1a" stroke-width="1.3" fill="none" stroke-dasharray="0 0" style=""/></g></g><g class="node default" id="my-svg-classId-BasicBlock-3" data-look="classic" transform="translate(110.45703125, 570)"><g class="basic label-container outer-path"><path d="M-93.05517578125 -53 L93.05517578125 -53 L93.05517578125 53 L-93.05517578125 53" stroke="none" stroke-width="0" fill="#FBF7F0" style=""/><path d="M-93.05517578125 -53 C-55.68791972906776 -53, -18.320663676885516 -53, 93.05517578125 -53 M-93.05517578125 -53 C-48.442090750270054 -53, -3.829005719290109 -53, 93.05517578125 -53 M93.05517578125 -53 C93.05517578125 -16.01763296652473, 93.05517578125 20.96473406695054, 93.05517578125 53 M93.05517578125 -53 C93.05517578125 -24.21123806435366, 93.05517578125 4.5775238712926765, 93.05517578125 53 M93.05517578125 53 C44.023950457665514 53, -5.007274865918973 53, -93.05517578125 53 M93.05517578125 53 C39.5307877302172 53, -13.993600320815602 53, -93.05517578125 53 M-93.05517578125 53 C-93.05517578125 24.294413916714937, -93.05517578125 -4.411172166570125, -93.05517578125 -53 M-93.05517578125 53 C-93.05517578125 20.177891453416628, -93.05517578125 -12.644217093166745, -93.05517578125 -53" stroke="#1a1a1a" stroke-width="1.3" fill="none" stroke-dasharray="0 0" style=""/></g><g class="annotation-group text" transform="translate(0, -33)"/><g class="label-group text" transform="translate(-38.6376953125, -33)"><g class="label" style="font-weight: bolder" transform="translate(0,-8.5)"><g><rect class="background" style="stroke: none"/><text y="-10.1" style=""><tspan class="text-outer-tspan row" x="0" y="-0.1em" dy="1.1em" font-weight=""><tspan font-style="normal" class="text-inner-tspan" font-weight="">BasicBlock</tspan></tspan></text></g></g></g><g class="members-group text" transform="translate(-81.05517578125, 8)"><g class="label" style="" transform="translate(0,-8.5)"><g><rect class="background" style="stroke: none"/><text y="-10.1" style=""><tspan class="text-outer-tspan row" x="0" y="-0.1em" dy="1.1em"><tspan font-style="normal" class="text-inner-tspan" font-weight="normal">a</tspan><tspan font-style="normal" class="text-inner-tspan" font-weight="normal"> MIR</tspan><tspan font-style="normal" class="text-inner-tspan" font-weight="normal"> BasicBlock</tspan></tspan></text></g></g></g><g class="methods-group text" transform="translate(-81.05517578125, 49)"/><g class="divider" style=""><path d="M-93.05517578125 -12 C-40.18323276742722 -11.999715910788574, 12.688710246395559 -11.999431821577145, 93.05517578125 -11.999 M-93.05517578125 -12 C-53.74650836077116 -11.999788788387693, -14.437840940292318 -11.999577576775387, 93.05517578125 -11.999" stroke="#1a1a1a" stroke-width="1.3" fill="none" stroke-dasharray="0 0" style=""/></g><g class="divider" style=""><path d="M-93.05517578125 29 C-46.431847505673495 29.00025051442805, 0.19148076990300922 29.000501028856096, 93.05517578125 29.001 M-93.05517578125 29 C-48.1167398373384 29.000241461238275, -3.1783038934268006 29.00048292247655, 93.05517578125 29.001" stroke="#1a1a1a" stroke-width="1.3" fill="none" stroke-dasharray="0 0" style=""/></g></g><g class="node default" id="my-svg-classId-Instruction-4" data-look="classic" transform="translate(238.796142578125, 743)"><g class="basic label-container outer-path"><path d="M-145.0185546875 -63 L145.0185546875 -63 L145.0185546875 63 L-145.0185546875 63" stroke="none" stroke-width="0" fill="#FBF7F0" style=""/><path d="M-145.0185546875 -63 C-54.78473722377436 -63, 35.449080239951286 -63, 145.0185546875 -63 M-145.0185546875 -63 C-64.93418868866719 -63, 15.150177310165617 -63, 145.0185546875 -63 M145.0185546875 -63 C145.0185546875 -14.992426528222666, 145.0185546875 33.01514694355467, 145.0185546875 63 M145.0185546875 -63 C145.0185546875 -18.002772256019156, 145.0185546875 26.994455487961687, 145.0185546875 63 M145.0185546875 63 C73.00037761179983 63, 0.9822005360996684 63, -145.0185546875 63 M145.0185546875 63 C63.83165910206674 63, -17.355236483366525 63, -145.0185546875 63 M-145.0185546875 63 C-145.0185546875 16.857237273176295, -145.0185546875 -29.28552545364741, -145.0185546875 -63 M-145.0185546875 63 C-145.0185546875 15.524832549910506, -145.0185546875 -31.950334900178987, -145.0185546875 -63" stroke="#1a1a1a" stroke-width="1.3" fill="none" stroke-dasharray="0 0" style=""/></g><g class="annotation-group text" transform="translate(0, -43)"/><g class="label-group text" transform="translate(-42.486328125, -43)"><g class="label" style="font-weight: bolder" transform="translate(0,-8.5)"><g><rect class="background" style="stroke: none"/><text y="-10.1" style=""><tspan class="text-outer-tspan row" x="0" y="-0.1em" dy="1.1em" font-weight=""><tspan font-style="normal" class="text-inner-tspan" font-weight="">Instruction</tspan></tspan></text></g></g></g><g class="members-group text" transform="translate(-133.0185546875, -2)"><g class="label" style="" transform="translate(0,-8.5)"><g><rect class="background" style="stroke: none"/><text y="-10.1" style=""><tspan class="text-outer-tspan row" x="0" y="-0.1em" dy="1.1em"><tspan font-style="normal" class="text-inner-tspan" font-weight="normal">a</tspan><tspan font-style="normal" class="text-inner-tspan" font-weight="normal"> MIR</tspan><tspan font-style="normal" class="text-inner-tspan" font-weight="normal"> statement</tspan><tspan font-style="normal" class="text-inner-tspan" font-weight="normal"> or</tspan><tspan font-style="normal" class="text-inner-tspan" font-weight="normal"> terminator</tspan></tspan></text></g></g><g class="label" style="" transform="translate(0,11.5)"><g><rect class="background" style="stroke: none"/><text y="-10.1" style=""><tspan class="text-outer-tspan row" x="0" y="-0.1em" dy="1.1em"><tspan font-style="normal" class="text-inner-tspan" font-weight="normal">block</tspan><tspan font-style="normal" class="text-inner-tspan" font-weight="normal"> ends</tspan><tspan font-style="normal" class="text-inner-tspan" font-weight="normal"> in</tspan><tspan font-style="normal" class="text-inner-tspan" font-weight="normal"> a</tspan><tspan font-style="normal" class="text-inner-tspan" font-weight="normal"> terminator</tspan></tspan></text></g></g></g><g class="methods-group text" transform="translate(-133.0185546875, 59)"/><g class="divider" style=""><path d="M-145.0185546875 -22 C-69.50372224987245 -21.99973963734296, 6.011110187755094 -21.999479274685914, 145.0185546875 -21.999 M-145.0185546875 -22 C-68.14388638962913 -21.99973494885374, 8.730781908241738 -21.999469897707478, 145.0185546875 -21.999" stroke="#1a1a1a" stroke-width="1.3" fill="none" stroke-dasharray="0 0" style=""/></g><g class="divider" style=""><path d="M-145.0185546875 39 C-52.509660738390835 39.00031895537143, 39.99923321071833 39.00063791074286, 145.0185546875 39.001 M-145.0185546875 39 C-63.654235840540395 39.00028053071906, 17.71008300641921 39.00056106143812, 145.0185546875 39.001" stroke="#1a1a1a" stroke-width="1.3" fill="none" stroke-dasharray="0 0" style=""/></g></g><g class="node default" id="my-svg-classId-IRBuilder-5" data-look="classic" transform="translate(367.13525390625, 570)"><g class="basic label-container outer-path"><path d="M-129.623046875 -53 L129.623046875 -53 L129.623046875 53 L-129.623046875 53" stroke="none" stroke-width="0" fill="#FBF7F0" style=""/><path d="M-129.623046875 -53 C-33.05831857696627 -53, 63.506409721067456 -53, 129.623046875 -53 M-129.623046875 -53 C-64.68593162797384 -53, 0.2511836190523127 -53, 129.623046875 -53 M129.623046875 -53 C129.623046875 -24.552017150281873, 129.623046875 3.8959656994362533, 129.623046875 53 M129.623046875 -53 C129.623046875 -30.980005760596413, 129.623046875 -8.960011521192826, 129.623046875 53 M129.623046875 53 C31.104303773764812 53, -67.41443932747038 53, -129.623046875 53 M129.623046875 53 C59.43487507750706 53, -10.753296719985883 53, -129.623046875 53 M-129.623046875 53 C-129.623046875 19.704169800052426, -129.623046875 -13.591660399895147, -129.623046875 -53 M-129.623046875 53 C-129.623046875 23.280687315496557, -129.623046875 -6.4386253690068855, -129.623046875 -53" stroke="#1a1a1a" stroke-width="1.3" fill="none" stroke-dasharray="0 0" style=""/></g><g class="annotation-group text" transform="translate(0, -33)"/><g class="label-group text" transform="translate(-34.7890625, -33)"><g class="label" style="font-weight: bolder" transform="translate(0,-8.5)"><g><rect class="background" style="stroke: none"/><text y="-10.1" style=""><tspan class="text-outer-tspan row" x="0" y="-0.1em" dy="1.1em" font-weight=""><tspan font-style="normal" class="text-inner-tspan" font-weight="">IRBuilder</tspan></tspan></text></g></g></g><g class="members-group text" transform="translate(-117.623046875, 8)"><g class="label" style="" transform="translate(0,-8.5)"><g><rect class="background" style="stroke: none"/><text y="-10.1" style=""><tspan class="text-outer-tspan row" x="0" y="-0.1em" dy="1.1em"><tspan font-style="normal" class="text-inner-tspan" font-weight="normal">positioned</tspan><tspan font-style="normal" class="text-inner-tspan" font-weight="normal"> at</tspan><tspan font-style="normal" class="text-inner-tspan" font-weight="normal"> a</tspan><tspan font-style="normal" class="text-inner-tspan" font-weight="normal"> BasicBlock</tspan></tspan></text></g></g></g><g class="methods-group text" transform="translate(-117.623046875, 49)"/><g class="divider" style=""><path d="M-129.623046875 -12 C-32.65001625704568 -11.999625942172493, 64.32301436090864 -11.999251884344986, 129.623046875 -11.999 M-129.623046875 -12 C-50.068918254896545 -11.999693132777935, 29.48521036520691 -11.999386265555872, 129.623046875 -11.999" stroke="#1a1a1a" stroke-width="1.3" fill="none" stroke-dasharray="0 0" style=""/></g><g class="divider" style=""><path d="M-129.623046875 29 C-65.53624041005122 29.00024720452115, -1.4494339451024416 29.000494409042297, 129.623046875 29.001 M-129.623046875 29 C-73.99432902293626 29.000214578808297, -18.365611170872512 29.00042915761659, 129.623046875 29.001" stroke="#1a1a1a" stroke-width="1.3" fill="none" stroke-dasharray="0 0" style=""/></g></g></g></g></g><defs><filter id="my-svg-drop-shadow" height="130%" width="130%"><feDropShadow dx="4" dy="4" stdDeviation="0" flood-opacity="0.06" flood-color="#000000"/></filter></defs><defs><filter id="my-svg-drop-shadow-small" height="150%" width="150%"><feDropShadow dx="2" dy="2" stdDeviation="0" flood-opacity="0.06" flood-color="#000000"/></filter></defs><linearGradient id="my-svg-gradient" gradientUnits="objectBoundingBox" x1="0%" y1="0%" x2="100%" y2="0%"><stop offset="0%" stop-color="#1a1a1a" stop-opacity="1"/><stop offset="100%" stop-color="hsl(36, 2.8571428571%, 83.137254902%)" stop-opacity="1"/></linearGradient></svg>